<svg width="487" height="30" viewBox="0 0 487 30" fill="none" xmlns="http://www.w3.org/2000/svg">
<path d="M24.5738 11.7175L15.8238 4.06123C15.5958 3.86151 15.3031 3.7514 15 3.7514C14.6969 3.7514 14.4042 3.86151 14.1763 4.06123L5.42625 11.7175C5.29221 11.8349 5.18483 11.9797 5.11132 12.142C5.0378 12.3043 4.99985 12.4805 5 12.6587V23.7487C5 24.0802 5.1317 24.3982 5.36612 24.6326C5.60054 24.867 5.91848 24.9987 6.25 24.9987H11.25C11.5815 24.9987 11.8995 24.867 12.1339 24.6326C12.3683 24.3982 12.5 24.0802 12.5 23.7487V18.7487C12.5 18.4172 12.6317 18.0993 12.8661 17.8648C13.1005 17.6304 13.4185 17.4987 13.75 17.4987H16.25C16.5815 17.4987 16.8995 17.6304 17.1339 17.8648C17.3683 18.0993 17.5 18.4172 17.5 18.7487V23.7487C17.5 24.0802 17.6317 24.3982 17.8661 24.6326C18.1005 24.867 18.4185 24.9987 18.75 24.9987H23.75C24.0815 24.9987 24.3995 24.867 24.6339 24.6326C24.8683 24.3982 25 24.0802 25 23.7487V12.6587C25.0002 12.4805 24.9622 12.3043 24.8887 12.142C24.8152 11.9797 24.7078 11.8349 24.5738 11.7175Z" stroke="#696671" stroke-width="2.5" stroke-linecap="round" stroke-linejoin="round"/>
<path d="M38.59 19.59L43.17 15L38.59 10.41L40 9L46 15L40 21L38.59 19.59Z" fill="#06286E"/>
<path d="M55.9177 22V8.90909H64.0356V10.6094H57.8928V14.598H63.4539V16.2919H57.8928V22H55.9177ZM68.2224 8.90909V22H66.3112V8.90909H68.2224ZM73.6508 22.2173C73.0287 22.2173 72.4662 22.1023 71.9633 21.8722C71.4605 21.6378 71.0621 21.299 70.768 20.8558C70.4782 20.4126 70.3334 19.8693 70.3334 19.2259C70.3334 18.6719 70.4399 18.2159 70.653 17.858C70.866 17.5 71.1537 17.2166 71.5159 17.0078C71.8781 16.799 72.2829 16.6413 72.7304 16.5348C73.1778 16.4283 73.6338 16.3473 74.0983 16.2919C74.6863 16.2237 75.1636 16.1683 75.5301 16.1257C75.8966 16.0788 76.1629 16.0043 76.3291 15.902C76.4953 15.7997 76.5784 15.6335 76.5784 15.4034V15.3587C76.5784 14.8004 76.4207 14.3679 76.1054 14.0611C75.7943 13.7543 75.3298 13.6009 74.7119 13.6009C74.0684 13.6009 73.5613 13.7436 73.1906 14.0291C72.8241 14.3104 72.5706 14.6236 72.43 14.9688L70.6338 14.5597C70.8469 13.9631 71.1579 13.4815 71.567 13.1151C71.9804 12.7443 72.4555 12.4759 72.9925 12.3097C73.5294 12.1392 74.094 12.054 74.6863 12.054C75.0784 12.054 75.4939 12.1009 75.9328 12.1946C76.376 12.2841 76.7893 12.4503 77.1729 12.6932C77.5606 12.9361 77.8781 13.2834 78.1253 13.7351C78.3724 14.1825 78.496 14.7642 78.496 15.4801V22H76.6295V20.6577H76.5528C76.4292 20.9048 76.2439 21.1477 75.9967 21.3864C75.7496 21.625 75.4321 21.8232 75.0443 21.9808C74.6565 22.1385 74.192 22.2173 73.6508 22.2173ZM74.0663 20.6832C74.5947 20.6832 75.0464 20.5788 75.4214 20.37C75.8007 20.1612 76.0883 19.8885 76.2844 19.5518C76.4846 19.2109 76.5848 18.8466 76.5848 18.4588V17.1932C76.5166 17.2614 76.3845 17.3253 76.1885 17.3849C75.9967 17.4403 75.7773 17.4893 75.5301 17.532C75.2829 17.5703 75.0422 17.6065 74.8078 17.6406C74.5734 17.6705 74.3774 17.696 74.2197 17.7173C73.849 17.7642 73.5102 17.843 73.2034 17.9538C72.9008 18.0646 72.6579 18.2244 72.4747 18.4332C72.2957 18.6378 72.2062 18.9105 72.2062 19.2514C72.2062 19.7244 72.3809 20.0824 72.7304 20.3253C73.0798 20.5639 73.5251 20.6832 74.0663 20.6832ZM88.3989 14.5788L86.6666 14.8857C86.5942 14.6641 86.4791 14.4531 86.3215 14.2528C86.1681 14.0526 85.9593 13.8885 85.695 13.7607C85.4308 13.6328 85.1006 13.5689 84.7043 13.5689C84.1631 13.5689 83.7114 13.6903 83.3492 13.9332C82.9869 14.1719 82.8058 14.4808 82.8058 14.8601C82.8058 15.1882 82.9273 15.4524 83.1702 15.6527C83.4131 15.853 83.8051 16.017 84.3463 16.1449L85.906 16.5028C86.8094 16.7116 87.4827 17.0334 87.9259 17.468C88.3691 17.9027 88.5906 18.4673 88.5906 19.1619C88.5906 19.75 88.4202 20.2741 88.0793 20.7344C87.7426 21.1903 87.2718 21.5483 86.6666 21.8082C86.0658 22.0682 85.3691 22.1982 84.5764 22.1982C83.477 22.1982 82.58 21.9638 81.8854 21.495C81.1908 21.022 80.7646 20.3509 80.607 19.4815L82.4543 19.2003C82.5693 19.6818 82.8058 20.0462 83.1638 20.2933C83.5218 20.5362 83.9884 20.6577 84.5637 20.6577C85.1901 20.6577 85.6908 20.5277 86.0658 20.2678C86.4408 20.0036 86.6283 19.6818 86.6283 19.3026C86.6283 18.9957 86.5132 18.7379 86.2831 18.5291C86.0573 18.3203 85.71 18.1626 85.2412 18.0561L83.5793 17.6918C82.6631 17.483 81.9855 17.1506 81.5466 16.6946C81.1119 16.2386 80.8946 15.6612 80.8946 14.9624C80.8946 14.3828 81.0566 13.8757 81.3804 13.4411C81.7043 13.0064 82.1517 12.6676 82.7227 12.4247C83.2938 12.1776 83.9479 12.054 84.6851 12.054C85.7462 12.054 86.5814 12.2841 87.1908 12.7443C87.8002 13.2003 88.2029 13.8118 88.3989 14.5788ZM92.6032 16.1705V22H90.692V8.90909H92.5777V13.7798H92.6991C92.9292 13.2514 93.2808 12.8317 93.7538 12.5206C94.2268 12.2095 94.8447 12.054 95.6075 12.054C96.2808 12.054 96.8689 12.1925 97.3717 12.4695C97.8788 12.7464 98.2709 13.1598 98.5479 13.7095C98.8291 14.255 98.9697 14.9368 98.9697 15.755V22H97.0585V15.9851C97.0585 15.2649 96.8731 14.7067 96.5024 14.3104C96.1317 13.9098 95.616 13.7095 94.9555 13.7095C94.5038 13.7095 94.099 13.8054 93.741 13.9972C93.3873 14.1889 93.1082 14.4702 92.9037 14.8409C92.7034 15.2074 92.6032 15.6506 92.6032 16.1705ZM105.656 22.1982C104.706 22.1982 103.887 21.983 103.201 21.5526C102.519 21.1179 101.995 20.5192 101.629 19.7564C101.262 18.9936 101.079 18.12 101.079 17.1357C101.079 16.1385 101.267 15.2585 101.642 14.4957C102.017 13.7287 102.545 13.13 103.227 12.6996C103.909 12.2692 104.712 12.054 105.637 12.054C106.382 12.054 107.047 12.1925 107.631 12.4695C108.215 12.7422 108.686 13.1257 109.044 13.62C109.406 14.1143 109.621 14.6918 109.689 15.3523H107.829C107.727 14.892 107.492 14.4957 107.126 14.1634C106.764 13.831 106.278 13.6648 105.669 13.6648C105.136 13.6648 104.669 13.8054 104.269 14.0866C103.872 14.3636 103.563 14.7599 103.342 15.2756C103.12 15.7869 103.009 16.392 103.009 17.0909C103.009 17.8068 103.118 18.4247 103.335 18.9446C103.553 19.4645 103.86 19.8672 104.256 20.1527C104.657 20.4382 105.127 20.581 105.669 20.581C106.031 20.581 106.359 20.5149 106.653 20.3828C106.951 20.2464 107.201 20.0526 107.401 19.8011C107.605 19.5497 107.748 19.2472 107.829 18.8935H109.689C109.621 19.5284 109.414 20.0952 109.069 20.5938C108.724 21.0923 108.262 21.4844 107.682 21.7699C107.107 22.0554 106.431 22.1982 105.656 22.1982ZM114.59 22.2173C113.968 22.2173 113.406 22.1023 112.903 21.8722C112.4 21.6378 112.002 21.299 111.707 20.8558C111.418 20.4126 111.273 19.8693 111.273 19.2259C111.273 18.6719 111.379 18.2159 111.592 17.858C111.805 17.5 112.093 17.2166 112.455 17.0078C112.818 16.799 113.222 16.6413 113.67 16.5348C114.117 16.4283 114.573 16.3473 115.038 16.2919C115.626 16.2237 116.103 16.1683 116.47 16.1257C116.836 16.0788 117.102 16.0043 117.269 15.902C117.435 15.7997 117.518 15.6335 117.518 15.4034V15.3587C117.518 14.8004 117.36 14.3679 117.045 14.0611C116.734 13.7543 116.269 13.6009 115.651 13.6009C115.008 13.6009 114.501 13.7436 114.13 14.0291C113.764 14.3104 113.51 14.6236 113.369 14.9688L111.573 14.5597C111.786 13.9631 112.097 13.4815 112.506 13.1151C112.92 12.7443 113.395 12.4759 113.932 12.3097C114.469 12.1392 115.033 12.054 115.626 12.054C116.018 12.054 116.433 12.1009 116.872 12.1946C117.315 12.2841 117.729 12.4503 118.112 12.6932C118.5 12.9361 118.818 13.2834 119.065 13.7351C119.312 14.1825 119.435 14.7642 119.435 15.4801V22H117.569V20.6577H117.492C117.369 20.9048 117.183 21.1477 116.936 21.3864C116.689 21.625 116.372 21.8232 115.984 21.9808C115.596 22.1385 115.131 22.2173 114.59 22.2173ZM115.006 20.6832C115.534 20.6832 115.986 20.5788 116.361 20.37C116.74 20.1612 117.028 19.8885 117.224 19.5518C117.424 19.2109 117.524 18.8466 117.524 18.4588V17.1932C117.456 17.2614 117.324 17.3253 117.128 17.3849C116.936 17.4403 116.717 17.4893 116.47 17.532C116.222 17.5703 115.982 17.6065 115.747 17.6406C115.513 17.6705 115.317 17.696 115.159 17.7173C114.788 17.7642 114.45 17.843 114.143 17.9538C113.84 18.0646 113.597 18.2244 113.414 18.4332C113.235 18.6378 113.146 18.9105 113.146 19.2514C113.146 19.7244 113.32 20.0824 113.67 20.3253C114.019 20.5639 114.465 20.6832 115.006 20.6832ZM121.981 22V12.1818H123.828V13.7415H123.931C124.11 13.2131 124.425 12.7976 124.877 12.495C125.333 12.1882 125.848 12.0348 126.424 12.0348C126.543 12.0348 126.684 12.0391 126.845 12.0476C127.012 12.0561 127.142 12.0668 127.235 12.0795V13.9077C127.159 13.8864 127.022 13.8629 126.826 13.8374C126.63 13.8075 126.434 13.7926 126.238 13.7926C125.786 13.7926 125.384 13.8885 125.03 14.0803C124.681 14.2678 124.404 14.5298 124.199 14.8665C123.995 15.1989 123.892 15.5781 123.892 16.0043V22H121.981ZM132.213 22.1918C131.421 22.1918 130.713 21.9893 130.091 21.5845C129.473 21.1754 128.987 20.5937 128.634 19.8395C128.284 19.081 128.109 18.1712 128.109 17.1101C128.109 16.049 128.286 15.1413 128.64 14.3871C128.998 13.6328 129.488 13.0554 130.11 12.6548C130.732 12.2543 131.438 12.054 132.226 12.054C132.835 12.054 133.325 12.1562 133.696 12.3608C134.071 12.5611 134.361 12.7955 134.565 13.0639C134.774 13.3324 134.936 13.5689 135.051 13.7734H135.166V8.90909H137.078V22H135.211V20.4723H135.051C134.936 20.6811 134.77 20.9197 134.553 21.1882C134.34 21.4567 134.046 21.6911 133.671 21.8913C133.296 22.0916 132.81 22.1918 132.213 22.1918ZM132.635 20.5618C133.185 20.5618 133.649 20.4169 134.028 20.1271C134.412 19.8331 134.702 19.4261 134.898 18.9062C135.098 18.3864 135.198 17.7812 135.198 17.0909C135.198 16.4091 135.1 15.8125 134.904 15.3011C134.708 14.7898 134.421 14.3913 134.041 14.1058C133.662 13.8203 133.193 13.6776 132.635 13.6776C132.06 13.6776 131.58 13.8267 131.197 14.125C130.813 14.4233 130.524 14.8303 130.328 15.3459C130.136 15.8615 130.04 16.4432 130.04 17.0909C130.04 17.7472 130.138 18.3374 130.334 18.8615C130.53 19.3857 130.82 19.8011 131.203 20.108C131.591 20.4105 132.068 20.5618 132.635 20.5618Z" fill="#696671"/>
<path d="M147.59 19.59L152.17 15L147.59 10.41L149 9L155 15L149 21L147.59 19.59Z" fill="#06286E"/>
<path d="M164.487 8.90909H166.884L171.052 19.0852H171.205L175.373 8.90909H177.77V22H175.89V12.527H175.769L171.908 21.9808H170.349L166.488 12.5206H166.366V22H164.487V8.90909ZM183.345 22.2173C182.723 22.2173 182.161 22.1023 181.658 21.8722C181.155 21.6378 180.756 21.299 180.462 20.8558C180.173 20.4126 180.028 19.8693 180.028 19.2259C180.028 18.6719 180.134 18.2159 180.347 17.858C180.56 17.5 180.848 17.2166 181.21 17.0078C181.572 16.799 181.977 16.6413 182.425 16.5348C182.872 16.4283 183.328 16.3473 183.793 16.2919C184.381 16.2237 184.858 16.1683 185.224 16.1257C185.591 16.0788 185.857 16.0043 186.023 15.902C186.19 15.7997 186.273 15.6335 186.273 15.4034V15.3587C186.273 14.8004 186.115 14.3679 185.8 14.0611C185.489 13.7543 185.024 13.6009 184.406 13.6009C183.763 13.6009 183.256 13.7436 182.885 14.0291C182.518 14.3104 182.265 14.6236 182.124 14.9688L180.328 14.5597C180.541 13.9631 180.852 13.4815 181.261 13.1151C181.675 12.7443 182.15 12.4759 182.687 12.3097C183.224 12.1392 183.788 12.054 184.381 12.054C184.773 12.054 185.188 12.1009 185.627 12.1946C186.07 12.2841 186.484 12.4503 186.867 12.6932C187.255 12.9361 187.572 13.2834 187.82 13.7351C188.067 14.1825 188.19 14.7642 188.19 15.4801V22H186.324V20.6577H186.247C186.124 20.9048 185.938 21.1477 185.691 21.3864C185.444 21.625 185.126 21.8232 184.739 21.9808C184.351 22.1385 183.886 22.2173 183.345 22.2173ZM183.761 20.6832C184.289 20.6832 184.741 20.5788 185.116 20.37C185.495 20.1612 185.783 19.8885 185.979 19.5518C186.179 19.2109 186.279 18.8466 186.279 18.4588V17.1932C186.211 17.2614 186.079 17.3253 185.883 17.3849C185.691 17.4403 185.472 17.4893 185.224 17.532C184.977 17.5703 184.737 17.6065 184.502 17.6406C184.268 17.6705 184.072 17.696 183.914 17.7173C183.543 17.7642 183.205 17.843 182.898 17.9538C182.595 18.0646 182.352 18.2244 182.169 18.4332C181.99 18.6378 181.901 18.9105 181.901 19.2514C181.901 19.7244 182.075 20.0824 182.425 20.3253C182.774 20.5639 183.219 20.6832 183.761 20.6832ZM195.319 12.1818V13.7159H189.956V12.1818H195.319ZM191.394 9.82955H193.306V19.1172C193.306 19.4879 193.361 19.767 193.472 19.9545C193.583 20.1378 193.725 20.2635 193.9 20.3317C194.079 20.3956 194.273 20.4276 194.482 20.4276C194.635 20.4276 194.769 20.4169 194.884 20.3956C194.999 20.3743 195.089 20.3572 195.153 20.3445L195.498 21.9233C195.387 21.9659 195.23 22.0085 195.025 22.0511C194.82 22.098 194.565 22.1236 194.258 22.1278C193.755 22.1364 193.286 22.0469 192.852 21.8594C192.417 21.6719 192.066 21.3821 191.797 20.9901C191.529 20.598 191.394 20.1058 191.394 19.5135V9.82955ZM199.555 16.1705V22H197.644V8.90909H199.53V13.7798H199.651C199.881 13.2514 200.233 12.8317 200.706 12.5206C201.179 12.2095 201.797 12.054 202.56 12.054C203.233 12.054 203.821 12.1925 204.324 12.4695C204.831 12.7464 205.223 13.1598 205.5 13.7095C205.781 14.255 205.922 14.9368 205.922 15.755V22H204.011V15.9851C204.011 15.2649 203.825 14.7067 203.455 14.3104C203.084 13.9098 202.568 13.7095 201.908 13.7095C201.456 13.7095 201.051 13.8054 200.693 13.9972C200.339 14.1889 200.06 14.4702 199.856 14.8409C199.656 15.2074 199.555 15.6506 199.555 16.1705ZM212.704 22.1982C211.737 22.1982 210.903 21.9915 210.205 21.5781C209.51 21.1605 208.973 20.5746 208.594 19.8203C208.219 19.0618 208.031 18.1733 208.031 17.1548C208.031 16.1491 208.219 15.2628 208.594 14.4957C208.973 13.7287 209.501 13.13 210.179 12.6996C210.861 12.2692 211.658 12.054 212.57 12.054C213.124 12.054 213.661 12.1456 214.18 12.3288C214.7 12.5121 215.167 12.7997 215.58 13.1918C215.994 13.5838 216.32 14.093 216.558 14.7195C216.797 15.3416 216.916 16.098 216.916 16.9886V17.6662H209.112V16.2344H215.043C215.043 15.7315 214.941 15.2862 214.737 14.8984C214.532 14.5064 214.244 14.1974 213.874 13.9716C213.507 13.7457 213.077 13.6328 212.582 13.6328C212.045 13.6328 211.577 13.7649 211.176 14.0291C210.78 14.2891 210.473 14.63 210.256 15.0518C210.043 15.4695 209.936 15.9233 209.936 16.4134V17.532C209.936 18.1882 210.051 18.7464 210.281 19.2067C210.516 19.6669 210.842 20.0185 211.259 20.2614C211.677 20.5 212.165 20.6193 212.723 20.6193C213.085 20.6193 213.415 20.5682 213.714 20.4659C214.012 20.3594 214.27 20.2017 214.487 19.9929C214.705 19.7841 214.871 19.5263 214.986 19.2195L216.795 19.5455C216.65 20.0781 216.39 20.5447 216.015 20.9453C215.644 21.3416 215.178 21.6506 214.615 21.8722C214.057 22.0895 213.42 22.1982 212.704 22.1982ZM219.037 22V12.1818H220.871V13.7798H220.993C221.197 13.2386 221.532 12.8168 221.996 12.5142C222.461 12.2074 223.017 12.054 223.665 12.054C224.321 12.054 224.871 12.2074 225.314 12.5142C225.761 12.821 226.091 13.2429 226.305 13.7798H226.407C226.641 13.2557 227.014 12.8381 227.525 12.527C228.037 12.2116 228.646 12.054 229.354 12.054C230.244 12.054 230.971 12.3331 231.533 12.8913C232.1 13.4496 232.383 14.2912 232.383 15.4162V22H230.472V15.5952C230.472 14.9304 230.291 14.4489 229.929 14.1506C229.567 13.8523 229.134 13.7031 228.631 13.7031C228.009 13.7031 227.525 13.8949 227.18 14.2784C226.835 14.6577 226.662 15.1456 226.662 15.7422V22H224.758V15.4737C224.758 14.9411 224.591 14.5128 224.259 14.1889C223.927 13.8651 223.494 13.7031 222.961 13.7031C222.599 13.7031 222.265 13.799 221.958 13.9908C221.655 14.1783 221.41 14.4403 221.223 14.777C221.04 15.1136 220.948 15.5036 220.948 15.9467V22H219.037ZM237.802 22.2173C237.18 22.2173 236.618 22.1023 236.115 21.8722C235.612 21.6378 235.213 21.299 234.919 20.8558C234.63 20.4126 234.485 19.8693 234.485 19.2259C234.485 18.6719 234.591 18.2159 234.804 17.858C235.017 17.5 235.305 17.2166 235.667 17.0078C236.029 16.799 236.434 16.6413 236.882 16.5348C237.329 16.4283 237.785 16.3473 238.25 16.2919C238.838 16.2237 239.315 16.1683 239.681 16.1257C240.048 16.0788 240.314 16.0043 240.48 15.902C240.647 15.7997 240.73 15.6335 240.73 15.4034V15.3587C240.73 14.8004 240.572 14.3679 240.257 14.0611C239.946 13.7543 239.481 13.6009 238.863 13.6009C238.22 13.6009 237.713 13.7436 237.342 14.0291C236.975 14.3104 236.722 14.6236 236.581 14.9688L234.785 14.5597C234.998 13.9631 235.309 13.4815 235.718 13.1151C236.132 12.7443 236.607 12.4759 237.144 12.3097C237.681 12.1392 238.245 12.054 238.838 12.054C239.23 12.054 239.645 12.1009 240.084 12.1946C240.527 12.2841 240.941 12.4503 241.324 12.6932C241.712 12.9361 242.029 13.2834 242.277 13.7351C242.524 14.1825 242.647 14.7642 242.647 15.4801V22H240.781V20.6577H240.704C240.581 20.9048 240.395 21.1477 240.148 21.3864C239.901 21.625 239.583 21.8232 239.196 21.9808C238.808 22.1385 238.343 22.2173 237.802 22.2173ZM238.218 20.6832C238.746 20.6832 239.198 20.5788 239.573 20.37C239.952 20.1612 240.24 19.8885 240.436 19.5518C240.636 19.2109 240.736 18.8466 240.736 18.4588V17.1932C240.668 17.2614 240.536 17.3253 240.34 17.3849C240.148 17.4403 239.929 17.4893 239.681 17.532C239.434 17.5703 239.194 17.6065 238.959 17.6406C238.725 17.6705 238.529 17.696 238.371 17.7173C238 17.7642 237.662 17.843 237.355 17.9538C237.052 18.0646 236.809 18.2244 236.626 18.4332C236.447 18.6378 236.358 18.9105 236.358 19.2514C236.358 19.7244 236.532 20.0824 236.882 20.3253C237.231 20.5639 237.676 20.6832 238.218 20.6832ZM249.776 12.1818V13.7159H244.413V12.1818H249.776ZM245.851 9.82955H247.763V19.1172C247.763 19.4879 247.818 19.767 247.929 19.9545C248.04 20.1378 248.182 20.2635 248.357 20.3317C248.536 20.3956 248.73 20.4276 248.939 20.4276C249.092 20.4276 249.226 20.4169 249.341 20.3956C249.456 20.3743 249.546 20.3572 249.61 20.3445L249.955 21.9233C249.844 21.9659 249.687 22.0085 249.482 22.0511C249.278 22.098 249.022 22.1236 248.715 22.1278C248.212 22.1364 247.743 22.0469 247.309 21.8594C246.874 21.6719 246.523 21.3821 246.254 20.9901C245.986 20.598 245.851 20.1058 245.851 19.5135V9.82955ZM251.89 22V12.1818H253.801V22H251.89ZM252.855 10.6669C252.523 10.6669 252.238 10.5561 251.999 10.3345C251.765 10.1087 251.647 9.8402 251.647 9.52912C251.647 9.21378 251.765 8.94531 251.999 8.72372C252.238 8.49787 252.523 8.38494 252.855 8.38494C253.188 8.38494 253.471 8.49787 253.706 8.72372C253.944 8.94531 254.064 9.21378 254.064 9.52912C254.064 9.8402 253.944 10.1087 253.706 10.3345C253.471 10.5561 253.188 10.6669 252.855 10.6669ZM260.508 22.1982C259.558 22.1982 258.74 21.983 258.054 21.5526C257.372 21.1179 256.848 20.5192 256.481 19.7564C256.115 18.9936 255.932 18.12 255.932 17.1357C255.932 16.1385 256.119 15.2585 256.494 14.4957C256.869 13.7287 257.398 13.13 258.079 12.6996C258.761 12.2692 259.564 12.054 260.489 12.054C261.235 12.054 261.9 12.1925 262.483 12.4695C263.067 12.7422 263.538 13.1257 263.896 13.62C264.258 14.1143 264.474 14.6918 264.542 15.3523H262.682C262.579 14.892 262.345 14.4957 261.979 14.1634C261.616 13.831 261.131 13.6648 260.521 13.6648C259.988 13.6648 259.522 13.8054 259.121 14.0866C258.725 14.3636 258.416 14.7599 258.194 15.2756C257.973 15.7869 257.862 16.392 257.862 17.0909C257.862 17.8068 257.971 18.4247 258.188 18.9446C258.405 19.4645 258.712 19.8672 259.108 20.1527C259.509 20.4382 259.98 20.581 260.521 20.581C260.883 20.581 261.211 20.5149 261.506 20.3828C261.804 20.2464 262.053 20.0526 262.253 19.8011C262.458 19.5497 262.601 19.2472 262.682 18.8935H264.542C264.474 19.5284 264.267 20.0952 263.922 20.5938C263.577 21.0923 263.114 21.4844 262.535 21.7699C261.959 22.0554 261.284 22.1982 260.508 22.1982ZM273.943 14.5788L272.211 14.8857C272.138 14.6641 272.023 14.4531 271.865 14.2528C271.712 14.0526 271.503 13.8885 271.239 13.7607C270.975 13.6328 270.645 13.5689 270.248 13.5689C269.707 13.5689 269.255 13.6903 268.893 13.9332C268.531 14.1719 268.35 14.4808 268.35 14.8601C268.35 15.1882 268.471 15.4524 268.714 15.6527C268.957 15.853 269.349 16.017 269.89 16.1449L271.45 16.5028C272.353 16.7116 273.027 17.0334 273.47 17.468C273.913 17.9027 274.135 18.4673 274.135 19.1619C274.135 19.75 273.964 20.2741 273.623 20.7344C273.287 21.1903 272.816 21.5483 272.211 21.8082C271.61 22.0682 270.913 22.1982 270.12 22.1982C269.021 22.1982 268.124 21.9638 267.429 21.495C266.735 21.022 266.309 20.3509 266.151 19.4815L267.998 19.2003C268.113 19.6818 268.35 20.0462 268.708 20.2933C269.066 20.5362 269.532 20.6577 270.108 20.6577C270.734 20.6577 271.235 20.5277 271.61 20.2678C271.985 20.0036 272.172 19.6818 272.172 19.3026C272.172 18.9957 272.057 18.7379 271.827 18.5291C271.601 18.3203 271.254 18.1626 270.785 18.0561L269.123 17.6918C268.207 17.483 267.529 17.1506 267.091 16.6946C266.656 16.2386 266.439 15.6612 266.439 14.9624C266.439 14.3828 266.6 13.8757 266.924 13.4411C267.248 13.0064 267.696 12.6676 268.267 12.4247C268.838 12.1776 269.492 12.054 270.229 12.054C271.29 12.054 272.125 12.2841 272.735 12.7443C273.344 13.2003 273.747 13.8118 273.943 14.5788Z" fill="#696671"/>
<path d="M283.59 19.59L288.17 15L283.59 10.41L285 9L291 15L285 21L283.59 19.59Z" fill="#06286E"/>
<path d="M300.301 22V8.90909H305.21C306.216 8.90909 307.059 9.08381 307.741 9.43324C308.427 9.78267 308.945 10.2727 309.295 10.9034C309.648 11.5298 309.825 12.2607 309.825 13.0959C309.825 13.9354 309.646 14.6641 309.288 15.282C308.934 15.8956 308.412 16.3707 307.722 16.7074C307.032 17.0398 306.184 17.206 305.178 17.206H301.682V15.2372H304.858C305.447 15.2372 305.928 15.1562 306.303 14.9943C306.678 14.8281 306.955 14.5874 307.134 14.272C307.317 13.9524 307.409 13.5604 307.409 13.0959C307.409 12.6314 307.317 12.2351 307.134 11.907C306.951 11.5746 306.672 11.3232 306.297 11.1527C305.922 10.978 305.438 10.8906 304.846 10.8906H302.672V22H300.301ZM307.064 16.0682L310.305 22H307.658L304.475 16.0682H307.064ZM316.112 22.1918C315.127 22.1918 314.277 21.9872 313.561 21.5781C312.85 21.1648 312.302 20.581 311.919 19.8267C311.535 19.0682 311.343 18.1754 311.343 17.1484C311.343 16.1385 311.535 15.2521 311.919 14.4893C312.306 13.7223 312.847 13.1257 313.542 12.6996C314.237 12.2692 315.053 12.054 315.99 12.054C316.595 12.054 317.166 12.152 317.703 12.348C318.244 12.5398 318.722 12.8381 319.135 13.2429C319.553 13.6477 319.881 14.1634 320.119 14.7898C320.358 15.4119 320.477 16.1534 320.477 17.0142V17.7237H312.43V16.1641H318.259C318.255 15.7209 318.159 15.3267 317.972 14.9815C317.784 14.6321 317.522 14.3572 317.186 14.157C316.853 13.9567 316.465 13.8565 316.022 13.8565C315.549 13.8565 315.134 13.9716 314.776 14.2017C314.418 14.4276 314.139 14.7259 313.938 15.0966C313.742 15.4631 313.642 15.8658 313.638 16.3047V17.6662C313.638 18.2372 313.742 18.7273 313.951 19.1364C314.16 19.5412 314.452 19.8523 314.827 20.0696C315.202 20.2827 315.641 20.3892 316.144 20.3892C316.48 20.3892 316.785 20.3423 317.058 20.2486C317.33 20.1506 317.567 20.0078 317.767 19.8203C317.968 19.6328 318.119 19.4006 318.221 19.1236L320.382 19.3665C320.245 19.9375 319.985 20.4361 319.602 20.8622C319.222 21.2841 318.737 21.6122 318.144 21.8466C317.552 22.0767 316.874 22.1918 316.112 22.1918ZM324.749 8.90909V22H322.435V8.90909H324.749ZM329.954 22.1982C329.331 22.1982 328.771 22.0874 328.273 21.8658C327.778 21.6399 327.386 21.3075 327.096 20.8686C326.811 20.4297 326.668 19.8885 326.668 19.245C326.668 18.6911 326.77 18.233 326.975 17.8707C327.18 17.5085 327.459 17.2188 327.812 17.0014C328.166 16.7841 328.564 16.62 329.008 16.5092C329.455 16.3942 329.917 16.3111 330.395 16.2599C330.97 16.2003 331.437 16.147 331.795 16.1001C332.153 16.049 332.412 15.9723 332.574 15.87C332.741 15.7635 332.824 15.5994 332.824 15.3778V15.3395C332.824 14.858 332.681 14.4851 332.395 14.2209C332.11 13.9567 331.699 13.8246 331.162 13.8246C330.595 13.8246 330.145 13.9482 329.813 14.1953C329.485 14.4425 329.263 14.7344 329.148 15.071L326.988 14.7642C327.158 14.1676 327.439 13.669 327.831 13.2685C328.224 12.8636 328.703 12.5611 329.27 12.3608C329.836 12.1562 330.463 12.054 331.149 12.054C331.622 12.054 332.093 12.1094 332.562 12.2202C333.03 12.331 333.459 12.5142 333.846 12.7699C334.234 13.0213 334.545 13.3643 334.78 13.799C335.018 14.2337 335.138 14.777 335.138 15.429V22H332.913V20.6513H332.836C332.696 20.924 332.498 21.1797 332.242 21.4183C331.991 21.6527 331.673 21.8423 331.29 21.9872C330.91 22.1278 330.465 22.1982 329.954 22.1982ZM330.555 20.4979C331.019 20.4979 331.422 20.4062 331.763 20.223C332.104 20.0355 332.366 19.7884 332.549 19.4815C332.736 19.1747 332.83 18.8402 332.83 18.478V17.321C332.758 17.3807 332.634 17.4361 332.459 17.4872C332.289 17.5384 332.097 17.5831 331.884 17.6214C331.671 17.6598 331.46 17.6939 331.251 17.7237C331.042 17.7536 330.861 17.7791 330.708 17.8004C330.363 17.8473 330.054 17.924 329.781 18.0305C329.508 18.1371 329.293 18.2862 329.135 18.478C328.978 18.6655 328.899 18.9084 328.899 19.2067C328.899 19.6328 329.055 19.9545 329.366 20.1719C329.677 20.3892 330.073 20.4979 330.555 20.4979ZM342.367 12.1818V13.9716H336.723V12.1818H342.367ZM338.116 9.82955H340.43V19.0469C340.43 19.358 340.477 19.5966 340.571 19.7628C340.669 19.9247 340.797 20.0355 340.954 20.0952C341.112 20.1548 341.287 20.1847 341.479 20.1847C341.623 20.1847 341.756 20.174 341.875 20.1527C341.998 20.1314 342.092 20.1122 342.156 20.0952L342.546 21.9041C342.422 21.9467 342.246 21.9936 342.015 22.0447C341.79 22.0959 341.513 22.1257 341.184 22.1342C340.605 22.1513 340.083 22.0639 339.618 21.8722C339.154 21.6761 338.785 21.3736 338.513 20.9645C338.244 20.5554 338.112 20.044 338.116 19.4304V9.82955ZM344.302 22V12.1818H346.616V22H344.302ZM345.466 10.7884C345.099 10.7884 344.784 10.6669 344.52 10.424C344.255 10.1768 344.123 9.88068 344.123 9.53551C344.123 9.18608 344.255 8.88991 344.52 8.64702C344.784 8.39986 345.099 8.27628 345.466 8.27628C345.836 8.27628 346.152 8.39986 346.412 8.64702C346.676 8.88991 346.808 9.18608 346.808 9.53551C346.808 9.88068 346.676 10.1768 346.412 10.424C346.152 10.6669 345.836 10.7884 345.466 10.7884ZM353.278 22.1918C352.319 22.1918 351.488 21.9808 350.785 21.5589C350.082 21.1371 349.537 20.5469 349.149 19.7884C348.765 19.0298 348.574 18.1435 348.574 17.1293C348.574 16.1151 348.765 15.2266 349.149 14.4638C349.537 13.701 350.082 13.1087 350.785 12.6868C351.488 12.2649 352.319 12.054 353.278 12.054C354.237 12.054 355.068 12.2649 355.771 12.6868C356.474 13.1087 357.018 13.701 357.401 14.4638C357.789 15.2266 357.983 16.1151 357.983 17.1293C357.983 18.1435 357.789 19.0298 357.401 19.7884C357.018 20.5469 356.474 21.1371 355.771 21.5589C355.068 21.9808 354.237 22.1918 353.278 22.1918ZM353.291 20.3381C353.811 20.3381 354.246 20.1953 354.595 19.9098C354.944 19.62 355.204 19.2322 355.375 18.7464C355.55 18.2607 355.637 17.7195 355.637 17.1229C355.637 16.522 355.55 15.9787 355.375 15.4929C355.204 15.0028 354.944 14.6129 354.595 14.3232C354.246 14.0334 353.811 13.8885 353.291 13.8885C352.758 13.8885 352.315 14.0334 351.961 14.3232C351.612 14.6129 351.35 15.0028 351.175 15.4929C351.005 15.9787 350.92 16.522 350.92 17.1229C350.92 17.7195 351.005 18.2607 351.175 18.7464C351.35 19.2322 351.612 19.62 351.961 19.9098C352.315 20.1953 352.758 20.3381 353.291 20.3381ZM362.261 16.2472V22H359.947V12.1818H362.158V13.8501H362.273C362.499 13.3004 362.859 12.8636 363.354 12.5398C363.852 12.2159 364.468 12.054 365.201 12.054C365.879 12.054 366.469 12.1989 366.972 12.4886C367.479 12.7784 367.871 13.1982 368.148 13.7479C368.429 14.2976 368.567 14.9645 368.563 15.7486V22H366.249V16.1065C366.249 15.4503 366.079 14.9368 365.738 14.5661C365.401 14.1953 364.935 14.0099 364.338 14.0099C363.933 14.0099 363.573 14.0994 363.258 14.2784C362.947 14.4531 362.702 14.7067 362.523 15.0391C362.348 15.3714 362.261 15.7741 362.261 16.2472ZM378.206 22.1982C377.583 22.1982 377.023 22.0874 376.525 21.8658C376.03 21.6399 375.638 21.3075 375.348 20.8686C375.063 20.4297 374.92 19.8885 374.92 19.245C374.92 18.6911 375.022 18.233 375.227 17.8707C375.431 17.5085 375.711 17.2188 376.064 17.0014C376.418 16.7841 376.816 16.62 377.26 16.5092C377.707 16.3942 378.169 16.3111 378.647 16.2599C379.222 16.2003 379.689 16.147 380.047 16.1001C380.404 16.049 380.664 15.9723 380.826 15.87C380.993 15.7635 381.076 15.5994 381.076 15.3778V15.3395C381.076 14.858 380.933 14.4851 380.647 14.2209C380.362 13.9567 379.951 13.8246 379.414 13.8246C378.847 13.8246 378.397 13.9482 378.065 14.1953C377.737 14.4425 377.515 14.7344 377.4 15.071L375.24 14.7642C375.41 14.1676 375.691 13.669 376.083 13.2685C376.475 12.8636 376.955 12.5611 377.522 12.3608C378.088 12.1562 378.715 12.054 379.401 12.054C379.874 12.054 380.345 12.1094 380.814 12.2202C381.282 12.331 381.711 12.5142 382.098 12.7699C382.486 13.0213 382.797 13.3643 383.032 13.799C383.27 14.2337 383.39 14.777 383.39 15.429V22H381.165V20.6513H381.088C380.948 20.924 380.75 21.1797 380.494 21.4183C380.243 21.6527 379.925 21.8423 379.542 21.9872C379.162 22.1278 378.717 22.1982 378.206 22.1982ZM378.806 20.4979C379.271 20.4979 379.674 20.4062 380.015 20.223C380.355 20.0355 380.618 19.7884 380.801 19.4815C380.988 19.1747 381.082 18.8402 381.082 18.478V17.321C381.01 17.3807 380.886 17.4361 380.711 17.4872C380.541 17.5384 380.349 17.5831 380.136 17.6214C379.923 17.6598 379.712 17.6939 379.503 17.7237C379.294 17.7536 379.113 17.7791 378.96 17.8004C378.615 17.8473 378.306 17.924 378.033 18.0305C377.76 18.1371 377.545 18.2862 377.387 18.478C377.23 18.6655 377.151 18.9084 377.151 19.2067C377.151 19.6328 377.306 19.9545 377.618 20.1719C377.929 20.3892 378.325 20.4979 378.806 20.4979ZM388.03 16.2472V22H385.716V12.1818H387.928V13.8501H388.043C388.269 13.3004 388.629 12.8636 389.123 12.5398C389.622 12.2159 390.238 12.054 390.971 12.054C391.648 12.054 392.238 12.1989 392.741 12.4886C393.248 12.7784 393.64 13.1982 393.917 13.7479C394.199 14.2976 394.337 14.9645 394.333 15.7486V22H392.019V16.1065C392.019 15.4503 391.848 14.9368 391.507 14.5661C391.171 14.1953 390.704 14.0099 390.108 14.0099C389.703 14.0099 389.343 14.0994 389.027 14.2784C388.716 14.4531 388.471 14.7067 388.292 15.0391C388.118 15.3714 388.03 15.7741 388.03 16.2472ZM400.328 22.1726C399.557 22.1726 398.867 21.9744 398.257 21.5781C397.648 21.1818 397.167 20.6065 396.813 19.8523C396.459 19.098 396.282 18.1818 396.282 17.1037C396.282 16.0128 396.461 15.0923 396.819 14.3423C397.181 13.5881 397.669 13.0192 398.283 12.6357C398.897 12.2479 399.581 12.054 400.335 12.054C400.91 12.054 401.383 12.152 401.754 12.348C402.125 12.5398 402.419 12.772 402.636 13.0447C402.853 13.3132 403.022 13.5668 403.141 13.8054H403.237V8.90909H405.557V22H403.282V20.4531H403.141C403.022 20.6918 402.849 20.9453 402.623 21.2138C402.397 21.478 402.099 21.7038 401.728 21.8913C401.358 22.0788 400.891 22.1726 400.328 22.1726ZM400.974 20.2741C401.464 20.2741 401.882 20.142 402.227 19.8778C402.572 19.6094 402.834 19.2365 403.013 18.7592C403.192 18.282 403.282 17.7259 403.282 17.0909C403.282 16.456 403.192 15.9041 403.013 15.4354C402.838 14.9666 402.578 14.6023 402.233 14.3423C401.892 14.0824 401.473 13.9524 400.974 13.9524C400.458 13.9524 400.028 14.0866 399.683 14.3551C399.338 14.6236 399.078 14.9943 398.903 15.4673C398.728 15.9403 398.641 16.4815 398.641 17.0909C398.641 17.7045 398.728 18.2521 398.903 18.7337C399.082 19.2109 399.344 19.5881 399.689 19.8651C400.039 20.1378 400.467 20.2741 400.974 20.2741ZM412.59 22V8.90909H420.976V10.897H414.961V14.451H420.401V16.4389H414.961V22H412.59ZM428.677 17.8707V12.1818H430.991V22H428.748V20.255H428.645C428.424 20.8047 428.059 21.2543 427.552 21.6037C427.049 21.9531 426.429 22.1278 425.692 22.1278C425.049 22.1278 424.48 21.9851 423.985 21.6996C423.495 21.4098 423.112 20.9901 422.835 20.4403C422.558 19.8864 422.419 19.2173 422.419 18.4332V12.1818H424.733V18.0753C424.733 18.6974 424.904 19.1918 425.245 19.5582C425.586 19.9247 426.033 20.108 426.587 20.108C426.928 20.108 427.258 20.0249 427.578 19.8587C427.897 19.6925 428.159 19.4453 428.364 19.1172C428.573 18.7848 428.677 18.3693 428.677 17.8707ZM435.684 16.2472V22H433.371V12.1818H435.582V13.8501H435.697C435.923 13.3004 436.283 12.8636 436.778 12.5398C437.276 12.2159 437.892 12.054 438.625 12.054C439.302 12.054 439.893 12.1989 440.395 12.4886C440.903 12.7784 441.295 13.1982 441.572 13.7479C441.853 14.2976 441.991 14.9645 441.987 15.7486V22H439.673V16.1065C439.673 15.4503 439.503 14.9368 439.162 14.5661C438.825 14.1953 438.358 14.0099 437.762 14.0099C437.357 14.0099 436.997 14.0994 436.682 14.2784C436.371 14.4531 436.126 14.7067 435.947 15.0391C435.772 15.3714 435.684 15.7741 435.684 16.2472ZM448.622 22.1918C447.642 22.1918 446.8 21.9766 446.097 21.5462C445.398 21.1158 444.859 20.5213 444.48 19.7628C444.105 19 443.917 18.1222 443.917 17.1293C443.917 16.1321 444.109 15.2521 444.493 14.4893C444.876 13.7223 445.417 13.1257 446.116 12.6996C446.819 12.2692 447.65 12.054 448.609 12.054C449.406 12.054 450.111 12.201 450.725 12.495C451.343 12.7848 451.835 13.196 452.202 13.7287C452.568 14.2571 452.777 14.875 452.828 15.5824H450.616C450.527 15.1094 450.314 14.7152 449.977 14.3999C449.645 14.0803 449.199 13.9205 448.641 13.9205C448.168 13.9205 447.753 14.0483 447.395 14.304C447.037 14.5554 446.758 14.9176 446.557 15.3906C446.361 15.8636 446.263 16.4304 446.263 17.0909C446.263 17.7599 446.361 18.3352 446.557 18.8168C446.753 19.294 447.028 19.6626 447.382 19.9226C447.74 20.1783 448.16 20.3061 448.641 20.3061C448.982 20.3061 449.287 20.2422 449.555 20.1143C449.828 19.9822 450.056 19.7926 450.239 19.5455C450.422 19.2983 450.548 18.9979 450.616 18.6442H452.828C452.773 19.3388 452.568 19.9545 452.214 20.4915C451.861 21.0241 451.379 21.4418 450.77 21.7443C450.16 22.0426 449.444 22.1918 448.622 22.1918ZM459.631 12.1818V13.9716H453.987V12.1818H459.631ZM455.38 9.82955H457.694V19.0469C457.694 19.358 457.741 19.5966 457.835 19.7628C457.933 19.9247 458.06 20.0355 458.218 20.0952C458.376 20.1548 458.55 20.1847 458.742 20.1847C458.887 20.1847 459.019 20.174 459.138 20.1527C459.262 20.1314 459.356 20.1122 459.42 20.0952L459.81 21.9041C459.686 21.9467 459.509 21.9936 459.279 22.0447C459.053 22.0959 458.776 22.1257 458.448 22.1342C457.869 22.1513 457.347 22.0639 456.882 21.8722C456.418 21.6761 456.049 21.3736 455.776 20.9645C455.508 20.5554 455.376 20.044 455.38 19.4304V9.82955ZM461.566 22V12.1818H463.88V22H461.566ZM462.729 10.7884C462.363 10.7884 462.047 10.6669 461.783 10.424C461.519 10.1768 461.387 9.88068 461.387 9.53551C461.387 9.18608 461.519 8.88991 461.783 8.64702C462.047 8.39986 462.363 8.27628 462.729 8.27628C463.1 8.27628 463.415 8.39986 463.675 8.64702C463.939 8.88991 464.072 9.18608 464.072 9.53551C464.072 9.88068 463.939 10.1768 463.675 10.424C463.415 10.6669 463.1 10.7884 462.729 10.7884ZM470.542 22.1918C469.583 22.1918 468.752 21.9808 468.049 21.5589C467.346 21.1371 466.8 20.5469 466.413 19.7884C466.029 19.0298 465.837 18.1435 465.837 17.1293C465.837 16.1151 466.029 15.2266 466.413 14.4638C466.8 13.701 467.346 13.1087 468.049 12.6868C468.752 12.2649 469.583 12.054 470.542 12.054C471.501 12.054 472.332 12.2649 473.035 12.6868C473.738 13.1087 474.281 13.701 474.665 14.4638C475.053 15.2266 475.246 16.1151 475.246 17.1293C475.246 18.1435 475.053 19.0298 474.665 19.7884C474.281 20.5469 473.738 21.1371 473.035 21.5589C472.332 21.9808 471.501 22.1918 470.542 22.1918ZM470.555 20.3381C471.075 20.3381 471.509 20.1953 471.859 19.9098C472.208 19.62 472.468 19.2322 472.638 18.7464C472.813 18.2607 472.901 17.7195 472.901 17.1229C472.901 16.522 472.813 15.9787 472.638 15.4929C472.468 15.0028 472.208 14.6129 471.859 14.3232C471.509 14.0334 471.075 13.8885 470.555 13.8885C470.022 13.8885 469.579 14.0334 469.225 14.3232C468.876 14.6129 468.614 15.0028 468.439 15.4929C468.268 15.9787 468.183 16.522 468.183 17.1229C468.183 17.7195 468.268 18.2607 468.439 18.7464C468.614 19.2322 468.876 19.62 469.225 19.9098C469.579 20.1953 470.022 20.3381 470.555 20.3381ZM479.524 16.2472V22H477.21V12.1818H479.422V13.8501H479.537C479.763 13.3004 480.123 12.8636 480.617 12.5398C481.116 12.2159 481.732 12.054 482.465 12.054C483.142 12.054 483.732 12.1989 484.235 12.4886C484.742 12.7784 485.134 13.1982 485.411 13.7479C485.693 14.2976 485.831 14.9645 485.827 15.7486V22H483.513V16.1065C483.513 15.4503 483.343 14.9368 483.002 14.5661C482.665 14.1953 482.198 14.0099 481.602 14.0099C481.197 14.0099 480.837 14.0994 480.521 14.2784C480.21 14.4531 479.965 14.7067 479.786 15.0391C479.612 15.3714 479.524 15.7741 479.524 16.2472Z" fill="#06286E"/>
</svg>
