<svg width="712" height="486" viewBox="0 0 712 486" fill="none" xmlns="http://www.w3.org/2000/svg">
<mask id="mask0_1_166" style="mask-type:alpha" maskUnits="userSpaceOnUse" x="0" y="0" width="712" height="394">
<rect width="712" height="393.194" rx="42.5075" fill="black"/>
</mask>
<g mask="url(#mask0_1_166)">
<rect width="712" height="393.194" rx="42.5075" fill="#C4C4C4"/>
<rect width="712" height="393.194" rx="42.5075" fill="url(#paint0_linear_1_166)"/>
<path fill-rule="evenodd" clip-rule="evenodd" d="M663.825 41.5014V38.5826C669.507 39.872 673.743 44.9445 673.743 51.0089C673.743 57.0733 669.507 62.1459 663.825 63.4353V60.5164C667.92 59.2979 670.909 55.5005 670.909 51.0089C670.909 46.5173 667.92 42.72 663.825 41.5014ZM648.239 46.7582V55.2597H653.906L660.991 62.3443V39.6736L653.906 46.7582H648.239ZM667.367 51.0089C667.367 49.8217 667.035 48.6582 666.409 47.6493C665.783 46.6405 664.888 45.8264 663.825 45.2988V56.7049C665.922 55.6706 667.367 53.5169 667.367 51.0089Z" fill="#F5F5F5"/>
<path d="M46.7582 63.7612C46.7582 64.5405 47.3958 65.1781 48.1752 65.1781H53.8428C54.6221 65.1781 55.2597 64.5405 55.2597 63.7612V62.3443H46.7582V63.7612ZM51.009 36.8398C45.5397 36.8398 41.0906 41.2889 41.0906 46.7582C41.0906 50.1305 42.7767 53.0918 45.3413 54.8913V58.0935C45.3413 58.8728 45.9789 59.5105 46.7582 59.5105H55.2597C56.039 59.5105 56.6766 58.8728 56.6766 58.0935V54.8913C59.2413 53.0918 60.9274 50.1305 60.9274 46.7582C60.9274 41.2889 56.4783 36.8398 51.009 36.8398ZM55.0472 52.5676L53.8428 53.4177V56.6766H48.1752V53.4177L46.9708 52.5676C46.0321 51.9168 45.2647 51.0486 44.7342 50.037C44.2038 49.0254 43.9259 47.9005 43.9244 46.7582C43.9244 42.8475 47.0983 39.6736 51.009 39.6736C54.9197 39.6736 58.0936 42.8475 58.0936 46.7582C58.0936 49.0678 56.96 51.2357 55.0472 52.5676Z" fill="#F5F5F5"/>
<path d="M206.57 192.923C206.57 194.466 206.965 195.645 207.756 196.461C208.559 197.265 209.694 197.667 211.161 197.667C211.926 197.667 212.608 197.545 213.207 197.303C213.807 197.061 214.31 196.729 214.718 196.308C215.127 195.888 215.433 195.39 215.637 194.816C215.853 194.243 215.962 193.624 215.962 192.961C215.962 192.209 215.847 191.539 215.618 190.952C215.388 190.353 215.063 189.849 214.642 189.441C214.221 189.033 213.717 188.721 213.131 188.504C212.557 188.287 211.926 188.179 211.237 188.179C210.523 188.179 209.879 188.3 209.305 188.542C208.731 188.772 208.24 189.097 207.832 189.518C207.424 189.939 207.112 190.442 206.895 191.029C206.678 191.603 206.57 192.234 206.57 192.923ZM212.844 201.55C213.061 201.282 213.265 201.02 213.456 200.765C213.647 200.51 213.832 200.255 214.011 200C213.373 200.408 212.672 200.721 211.907 200.937C211.141 201.141 210.338 201.244 209.496 201.244C208.54 201.244 207.603 201.078 206.685 200.746C205.766 200.415 204.95 199.917 204.236 199.254C203.522 198.578 202.942 197.749 202.495 196.767C202.062 195.773 201.845 194.612 201.845 193.286C201.845 192.049 202.075 190.889 202.534 189.805C202.993 188.721 203.637 187.771 204.466 186.955C205.295 186.138 206.289 185.494 207.45 185.023C208.61 184.551 209.892 184.315 211.295 184.315C212.71 184.315 213.979 184.538 215.101 184.984C216.236 185.431 217.199 186.056 217.989 186.859C218.793 187.662 219.405 188.625 219.826 189.747C220.259 190.87 220.476 192.1 220.476 193.439C220.476 194.294 220.4 195.103 220.247 195.868C220.106 196.634 219.902 197.373 219.634 198.087C219.367 198.789 219.041 199.477 218.659 200.153C218.276 200.829 217.849 201.499 217.377 202.162L211.046 211.19C210.829 211.496 210.504 211.758 210.07 211.975C209.637 212.179 209.146 212.281 208.597 212.281H204.255L212.844 201.55ZM253.711 201.186H246.29V209.067H242.445V201.186H235.061V197.686H242.445V189.843H246.29V197.686H253.711V201.186ZM276.292 194.663L275.336 195.849C275.871 195.582 276.445 195.377 277.057 195.237C277.682 195.084 278.352 195.008 279.066 195.008C280.111 195.008 281.125 195.18 282.107 195.524C283.102 195.868 283.975 196.391 284.728 197.093C285.48 197.781 286.086 198.642 286.545 199.675C287.004 200.708 287.233 201.913 287.233 203.29C287.233 204.578 286.998 205.79 286.526 206.925C286.054 208.047 285.391 209.029 284.536 209.87C283.682 210.712 282.649 211.375 281.438 211.86C280.239 212.344 278.913 212.587 277.459 212.587C275.98 212.587 274.653 212.351 273.48 211.879C272.307 211.407 271.306 210.75 270.477 209.909C269.648 209.054 269.011 208.034 268.564 206.848C268.131 205.649 267.914 204.323 267.914 202.869C267.914 201.569 268.175 200.236 268.698 198.872C269.234 197.494 270.056 196.066 271.166 194.587L277.765 185.73C277.994 185.424 278.326 185.163 278.76 184.946C279.206 184.729 279.716 184.621 280.29 184.621H284.498L276.292 194.663ZM277.363 208.723C278.116 208.723 278.804 208.595 279.429 208.34C280.067 208.085 280.609 207.728 281.055 207.269C281.514 206.81 281.871 206.274 282.126 205.662C282.381 205.037 282.509 204.361 282.509 203.635C282.509 202.844 282.388 202.136 282.145 201.511C281.903 200.874 281.559 200.338 281.112 199.905C280.666 199.458 280.13 199.12 279.506 198.891C278.881 198.661 278.192 198.546 277.44 198.546C276.687 198.546 276.005 198.674 275.393 198.929C274.781 199.184 274.258 199.541 273.825 200C273.391 200.446 273.053 200.982 272.811 201.607C272.568 202.219 272.447 202.882 272.447 203.596C272.447 204.361 272.549 205.063 272.753 205.7C272.97 206.325 273.283 206.861 273.691 207.307C274.111 207.754 274.628 208.104 275.24 208.359C275.852 208.602 276.56 208.723 277.363 208.723ZM319.761 201.186H312.339V209.067H308.494V201.186H301.111V197.686H308.494V189.843H312.339V197.686H319.761V201.186ZM353.245 184.621V186.668C353.245 187.28 353.181 187.777 353.054 188.16C352.926 188.53 352.799 188.842 352.671 189.097L342.189 210.674C341.972 211.12 341.666 211.503 341.271 211.821C340.875 212.128 340.346 212.281 339.683 212.281H336.259L346.952 191.144C347.194 190.71 347.43 190.315 347.659 189.958C347.902 189.588 348.169 189.237 348.463 188.906H335.226C334.933 188.906 334.678 188.797 334.461 188.581C334.244 188.364 334.136 188.109 334.136 187.815V184.621H353.245ZM375.169 212.281H370.616C370.272 212.281 369.992 212.191 369.775 212.013C369.571 211.834 369.399 211.63 369.258 211.401L365.107 204.572C365.044 204.789 364.967 204.993 364.878 205.184C364.801 205.375 364.712 205.554 364.61 205.72L360.937 211.401C360.797 211.617 360.625 211.821 360.421 212.013C360.217 212.191 359.962 212.281 359.656 212.281H355.428L362.162 202.162L355.696 192.655H360.249C360.593 192.655 360.848 192.706 361.014 192.808C361.18 192.897 361.326 193.05 361.454 193.267L365.567 199.809C365.707 199.375 365.904 198.948 366.16 198.527L369.469 193.363C369.749 192.891 370.113 192.655 370.559 192.655H374.901L368.455 201.951L375.169 212.281ZM388.315 198.757H398.223V202.697H388.315V198.757ZM430.004 207.881C430.514 207.881 430.915 208.028 431.209 208.321C431.515 208.602 431.668 208.978 431.668 209.45V212.281H412.693V210.712C412.693 210.393 412.756 210.062 412.884 209.717C413.024 209.36 413.241 209.042 413.534 208.761L421.932 200.344C422.633 199.63 423.258 198.948 423.806 198.298C424.367 197.647 424.833 197.003 425.202 196.366C425.572 195.728 425.853 195.084 426.044 194.434C426.248 193.771 426.35 193.076 426.35 192.349C426.35 191.686 426.255 191.105 426.063 190.608C425.872 190.098 425.598 189.671 425.241 189.327C424.896 188.982 424.476 188.727 423.978 188.561C423.494 188.383 422.945 188.294 422.333 188.294C421.772 188.294 421.249 188.377 420.765 188.542C420.293 188.695 419.872 188.918 419.502 189.212C419.132 189.492 418.82 189.824 418.565 190.206C418.31 190.589 418.119 191.01 417.991 191.469C417.774 192.056 417.494 192.444 417.149 192.636C416.805 192.827 416.308 192.872 415.657 192.77L413.171 192.33C413.362 191.003 413.732 189.843 414.28 188.848C414.829 187.841 415.511 187.006 416.327 186.343C417.156 185.667 418.099 185.163 419.158 184.831C420.229 184.487 421.377 184.315 422.601 184.315C423.876 184.315 425.043 184.506 426.101 184.889C427.16 185.259 428.065 185.788 428.818 186.476C429.57 187.165 430.157 187.994 430.578 188.963C430.998 189.932 431.209 191.01 431.209 192.196C431.209 193.216 431.056 194.16 430.75 195.027C430.456 195.894 430.055 196.723 429.545 197.513C429.047 198.304 428.461 199.069 427.785 199.809C427.109 200.549 426.401 201.301 425.662 202.066L419.426 208.436C420.025 208.257 420.618 208.123 421.205 208.034C421.804 207.932 422.371 207.881 422.907 207.881H430.004ZM454.051 212.281H449.498C449.154 212.281 448.874 212.191 448.657 212.013C448.453 211.834 448.281 211.63 448.14 211.401L443.99 204.572C443.926 204.789 443.849 204.993 443.76 205.184C443.683 205.375 443.594 205.554 443.492 205.72L439.82 211.401C439.679 211.617 439.507 211.821 439.303 212.013C439.099 212.191 438.844 212.281 438.538 212.281H434.311L441.044 202.162L434.578 192.655H439.131C439.475 192.655 439.73 192.706 439.896 192.808C440.062 192.897 440.208 193.05 440.336 193.267L444.449 199.809C444.589 199.375 444.787 198.948 445.042 198.527L448.351 193.363C448.631 192.891 448.995 192.655 449.441 192.655H453.783L447.337 201.951L454.051 212.281ZM467.197 198.757H477.105V202.697H467.197V198.757ZM492.187 192.33C492.378 191.003 492.748 189.843 493.296 188.848C493.844 187.841 494.527 187.006 495.343 186.343C496.172 185.667 497.115 185.163 498.174 184.831C499.245 184.487 500.393 184.315 501.617 184.315C502.892 184.315 504.04 184.5 505.06 184.87C506.093 185.227 506.973 185.73 507.7 186.381C508.427 187.018 508.981 187.771 509.364 188.638C509.759 189.505 509.957 190.442 509.957 191.45C509.957 192.33 509.855 193.108 509.651 193.783C509.46 194.447 509.179 195.027 508.809 195.524C508.439 196.021 507.98 196.442 507.432 196.787C506.884 197.131 506.265 197.418 505.577 197.647C507.234 198.17 508.471 198.967 509.287 200.038C510.104 201.11 510.512 202.455 510.512 204.075C510.512 205.452 510.257 206.67 509.747 207.728C509.236 208.786 508.548 209.679 507.681 210.406C506.814 211.12 505.806 211.662 504.658 212.032C503.523 212.402 502.318 212.587 501.043 212.587C499.653 212.587 498.442 212.427 497.409 212.108C496.376 211.79 495.477 211.318 494.712 210.693C493.947 210.068 493.296 209.303 492.761 208.398C492.225 207.492 491.766 206.446 491.383 205.26L493.468 204.4C494.017 204.17 494.527 204.113 494.999 204.228C495.483 204.33 495.834 204.585 496.051 204.993C496.28 205.439 496.529 205.879 496.797 206.313C497.077 206.746 497.409 207.135 497.791 207.479C498.174 207.811 498.62 208.085 499.13 208.302C499.653 208.506 500.272 208.608 500.986 208.608C501.789 208.608 502.491 208.48 503.09 208.225C503.689 207.958 504.187 207.613 504.582 207.192C504.99 206.772 505.29 206.306 505.481 205.796C505.685 205.273 505.787 204.75 505.787 204.228C505.787 203.564 505.717 202.965 505.577 202.429C505.436 201.881 505.143 201.416 504.697 201.033C504.25 200.651 503.606 200.351 502.765 200.134C501.936 199.917 500.82 199.809 499.417 199.809V196.442C500.578 196.43 501.54 196.321 502.306 196.117C503.071 195.913 503.676 195.633 504.123 195.275C504.582 194.906 504.901 194.466 505.079 193.956C505.258 193.446 505.347 192.884 505.347 192.272C505.347 190.972 504.984 189.983 504.257 189.307C503.53 188.632 502.561 188.294 501.349 188.294C500.788 188.294 500.272 188.377 499.8 188.542C499.328 188.695 498.901 188.918 498.518 189.212C498.148 189.492 497.836 189.824 497.581 190.206C497.326 190.589 497.135 191.01 497.007 191.469C496.79 192.056 496.503 192.444 496.146 192.636C495.802 192.827 495.311 192.872 494.673 192.77L492.187 192.33Z" fill="white"/>
</g>
<path d="M75.591 444.594C74.2024 443.196 72.5509 442.086 70.7315 441.33C68.9122 440.573 66.9611 440.184 64.9906 440.185C56.6979 440.185 50 446.901 50 455.194C50 463.487 56.6979 470.203 64.9906 470.203C71.9887 470.203 77.8236 465.419 79.4934 458.946H75.591C74.8181 461.141 73.3834 463.041 71.4847 464.385C69.586 465.729 67.317 466.451 64.9906 466.451C58.7805 466.451 53.7336 461.404 53.7336 455.194C53.7336 448.984 58.7805 443.937 64.9906 443.937C68.1051 443.937 70.8818 445.232 72.9081 447.277L66.8668 453.318H80V440.185L75.591 444.594Z" fill="url(#paint1_linear_1_166)"/>
<path d="M250 425.194C255.933 425.194 261.734 426.953 266.667 430.25C271.601 433.546 275.446 438.232 277.716 443.714C279.987 449.195 280.581 455.227 279.424 461.047C278.266 466.866 275.409 472.212 271.213 476.407C267.018 480.603 261.672 483.46 255.853 484.618C250.033 485.775 244.001 485.181 238.519 482.91C233.038 480.64 228.352 476.795 225.056 471.861C221.759 466.928 220 461.127 220 455.194C220.015 447.242 223.181 439.621 228.804 433.998C234.427 428.375 242.048 425.209 250 425.194ZM240.366 456.896L251.905 467.28C252.332 467.665 252.886 467.881 253.462 467.886C253.782 467.888 254.099 467.821 254.392 467.692C254.685 467.563 254.948 467.373 255.163 467.136C255.368 466.912 255.527 466.65 255.63 466.365C255.734 466.08 255.78 465.778 255.767 465.475C255.753 465.172 255.68 464.875 255.552 464.6C255.423 464.325 255.242 464.079 255.018 463.874L245.385 455.194L255.018 446.511C255.446 446.092 255.694 445.524 255.71 444.926C255.727 444.327 255.51 443.746 255.106 443.305C254.702 442.863 254.142 442.596 253.545 442.559C252.948 442.523 252.36 442.719 251.905 443.108L240.366 453.492C240.13 453.709 239.942 453.972 239.813 454.265C239.684 454.557 239.617 454.874 239.617 455.194C239.617 455.514 239.684 455.831 239.813 456.124C239.942 456.416 240.13 456.679 240.366 456.896Z" fill="url(#paint2_linear_1_166)"/>
<path d="M331.259 464.078C329.793 464.072 328.531 463.711 327.474 462.995C326.423 462.279 325.614 461.242 325.045 459.884C324.483 458.526 324.205 456.893 324.21 454.984C324.21 453.08 324.491 451.458 325.054 450.117C325.622 448.776 326.432 447.757 327.483 447.058C328.54 446.353 329.798 446.001 331.259 446.001C332.719 446.001 333.974 446.353 335.026 447.058C336.082 447.762 336.895 448.785 337.463 450.126C338.031 451.461 338.313 453.08 338.307 454.984C338.307 456.899 338.023 458.535 337.455 459.893C336.892 461.251 336.085 462.288 335.034 463.004C333.983 463.72 332.724 464.078 331.259 464.078ZM331.259 461.018C332.259 461.018 333.057 460.515 333.653 459.509C334.25 458.504 334.545 456.995 334.54 454.984C334.54 453.66 334.403 452.558 334.131 451.677C333.864 450.796 333.483 450.134 332.989 449.691C332.5 449.248 331.923 449.026 331.259 449.026C330.264 449.026 329.469 449.524 328.872 450.518C328.276 451.512 327.974 453.001 327.969 454.984C327.969 456.325 328.102 457.444 328.369 458.342C328.642 459.234 329.026 459.904 329.52 460.353C330.014 460.796 330.594 461.018 331.259 461.018ZM348.532 446.239V463.694H344.842V449.742H344.739L340.742 452.248V448.975L345.063 446.239H348.532ZM360.317 445.421L354.692 466.319H351.564L357.189 445.421H360.317ZM369.626 446.239V463.694H365.935V449.742H365.833L361.836 452.248V448.975L366.157 446.239H369.626ZM380.618 464.078C379.152 464.072 377.891 463.711 376.834 462.995C375.783 462.279 374.973 461.242 374.405 459.884C373.842 458.526 373.564 456.893 373.57 454.984C373.57 453.08 373.851 451.458 374.413 450.117C374.982 448.776 375.791 447.757 376.842 447.058C377.899 446.353 379.158 446.001 380.618 446.001C382.078 446.001 383.334 446.353 384.385 447.058C385.442 447.762 386.254 448.785 386.822 450.126C387.391 451.461 387.672 453.08 387.666 454.984C387.666 456.899 387.382 458.535 386.814 459.893C386.251 461.251 385.445 462.288 384.393 463.004C383.342 463.72 382.084 464.078 380.618 464.078ZM380.618 461.018C381.618 461.018 382.416 460.515 383.013 459.509C383.609 458.504 383.905 456.995 383.899 454.984C383.899 453.66 383.763 452.558 383.49 451.677C383.223 450.796 382.842 450.134 382.348 449.691C381.859 449.248 381.283 449.026 380.618 449.026C379.624 449.026 378.828 449.524 378.232 450.518C377.635 451.512 377.334 453.001 377.328 454.984C377.328 456.325 377.462 457.444 377.729 458.342C378.001 459.234 378.385 459.904 378.879 460.353C379.374 460.796 379.953 461.018 380.618 461.018Z" fill="#202B37"/>
<path d="M462 425.194C456.067 425.194 450.266 426.953 445.333 430.25C440.399 433.546 436.554 438.232 434.284 443.714C432.013 449.195 431.419 455.227 432.576 461.047C433.734 466.866 436.591 472.212 440.787 476.407C444.982 480.603 450.328 483.46 456.147 484.618C461.967 485.775 467.999 485.181 473.481 482.91C478.962 480.64 483.648 476.795 486.944 471.861C490.241 466.928 492 461.127 492 455.194C491.985 447.242 488.819 439.621 483.196 433.998C477.573 428.375 469.952 425.209 462 425.194ZM471.634 456.896L460.095 467.28C459.668 467.665 459.114 467.881 458.538 467.886C458.218 467.888 457.901 467.821 457.608 467.692C457.315 467.563 457.052 467.373 456.837 467.136C456.632 466.912 456.473 466.65 456.37 466.365C456.266 466.08 456.22 465.778 456.233 465.475C456.247 465.172 456.32 464.875 456.448 464.6C456.577 464.325 456.758 464.079 456.982 463.874L466.615 455.194L456.982 446.511C456.554 446.092 456.306 445.524 456.29 444.926C456.273 444.327 456.49 443.746 456.894 443.305C457.298 442.863 457.858 442.596 458.455 442.559C459.052 442.523 459.64 442.719 460.095 443.108L471.634 453.492C471.87 453.709 472.058 453.972 472.187 454.265C472.316 454.557 472.383 454.874 472.383 455.194C472.383 455.514 472.316 455.831 472.187 456.124C472.058 456.416 471.87 456.679 471.634 456.896Z" fill="url(#paint3_linear_1_166)"/>
<path fill-rule="evenodd" clip-rule="evenodd" d="M636.286 450.908H632V440.194H642.714V444.48H636.286V450.908ZM632 459.48H636.286V465.908H642.714V470.194H632V459.48ZM657.714 465.908H651.286V470.194H662V459.48H657.714V465.908ZM651.286 444.48V440.194H662V450.908H657.714V444.48H651.286Z" fill="url(#paint4_linear_1_166)"/>
<defs>
<linearGradient id="paint0_linear_1_166" x1="734.821" y1="-20.9539" x2="401.201" y2="628.303" gradientUnits="userSpaceOnUse">
<stop stop-color="#051A91"/>
<stop offset="0.173055" stop-color="#061C93"/>
<stop offset="0.797115" stop-color="#2284F1"/>
<stop offset="1" stop-color="#1F80EB"/>
</linearGradient>
<linearGradient id="paint1_linear_1_166" x1="65" y1="440.185" x2="65" y2="470.203" gradientUnits="userSpaceOnUse">
<stop stop-color="#06286E"/>
<stop offset="1" stop-color="#164EC0"/>
</linearGradient>
<linearGradient id="paint2_linear_1_166" x1="250" y1="425.194" x2="250" y2="485.194" gradientUnits="userSpaceOnUse">
<stop stop-color="#06286E"/>
<stop offset="1" stop-color="#164EC0"/>
</linearGradient>
<linearGradient id="paint3_linear_1_166" x1="462" y1="425.194" x2="462" y2="485.194" gradientUnits="userSpaceOnUse">
<stop stop-color="#06286E"/>
<stop offset="1" stop-color="#164EC0"/>
</linearGradient>
<linearGradient id="paint4_linear_1_166" x1="647" y1="440.194" x2="647" y2="470.194" gradientUnits="userSpaceOnUse">
<stop stop-color="#06286E"/>
<stop offset="1" stop-color="#164EC0"/>
</linearGradient>
</defs>
</svg>
