<svg width="672" height="33" viewBox="0 0 672 33" fill="none" xmlns="http://www.w3.org/2000/svg">
<path d="M0.890375 26V3.6H10.5864C12.5917 3.6 14.3197 3.93067 15.7704 4.592C17.221 5.232 18.341 6.16 19.1304 7.376C19.9197 8.592 20.3144 10.0427 20.3144 11.728C20.3144 13.392 19.9197 14.832 19.1304 16.048C18.341 17.2427 17.221 18.16 15.7704 18.8C14.3197 19.44 12.5917 19.76 10.5864 19.76H3.77038L6.07438 17.488V26H0.890375ZM15.1304 26L9.53038 17.872H15.0664L20.7304 26H15.1304ZM6.07438 18.064L3.77038 15.632H10.2984C11.8984 15.632 13.093 15.2907 13.8824 14.608C14.6717 13.904 15.0664 12.944 15.0664 11.728C15.0664 10.4907 14.6717 9.53067 13.8824 8.848C13.093 8.16533 11.8984 7.824 10.2984 7.824H3.77038L6.07438 5.36V18.064ZM32.6136 26.256C30.651 26.256 28.923 25.872 27.4296 25.104C25.9576 24.336 24.8163 23.2907 24.0056 21.968C23.195 20.624 22.7896 19.0987 22.7896 17.392C22.7896 15.664 23.1843 14.1387 23.9736 12.816C24.7843 11.472 25.883 10.4267 27.2696 9.68C28.6563 8.912 30.2243 8.528 31.9736 8.528C33.659 8.528 35.1736 8.89067 36.5176 9.616C37.883 10.32 38.9603 11.344 39.7496 12.688C40.539 14.0107 40.9336 15.6 40.9336 17.456C40.9336 17.648 40.923 17.872 40.9016 18.128C40.8803 18.3627 40.859 18.5867 40.8376 18.8H26.8536V15.888H38.2136L36.2936 16.752C36.2936 15.856 36.1123 15.0773 35.7496 14.416C35.387 13.7547 34.8856 13.2427 34.2456 12.88C33.6056 12.496 32.859 12.304 32.0056 12.304C31.1523 12.304 30.395 12.496 29.7336 12.88C29.0936 13.2427 28.5923 13.7653 28.2296 14.448C27.867 15.1093 27.6856 15.8987 27.6856 16.816V17.584C27.6856 18.5227 27.8883 19.3547 28.2936 20.08C28.7203 20.784 29.307 21.328 30.0536 21.712C30.8216 22.0747 31.7176 22.256 32.7416 22.256C33.659 22.256 34.459 22.1173 35.1416 21.84C35.8456 21.5627 36.4856 21.1467 37.0616 20.592L39.7176 23.472C38.9283 24.368 37.9363 25.0613 36.7416 25.552C35.547 26.0213 34.171 26.256 32.6136 26.256ZM44.2571 26V2.256H49.2491V26H44.2571ZM64.4421 26V22.64L64.1221 21.904V15.888C64.1221 14.8213 63.7915 13.9893 63.1301 13.392C62.4901 12.7947 61.4981 12.496 60.1541 12.496C59.2368 12.496 58.3301 12.6453 57.4341 12.944C56.5595 13.2213 55.8128 13.6053 55.1941 14.096L53.4021 10.608C54.3408 9.94667 55.4715 9.43467 56.7941 9.072C58.1168 8.70933 59.4608 8.528 60.8261 8.528C63.4501 8.528 65.4875 9.14667 66.9381 10.384C68.3888 11.6213 69.1141 13.552 69.1141 16.176V26H64.4421ZM59.1941 26.256C57.8501 26.256 56.6981 26.032 55.7381 25.584C54.7781 25.1147 54.0421 24.4853 53.5301 23.696C53.0181 22.9067 52.7621 22.0213 52.7621 21.04C52.7621 20.016 53.0075 19.12 53.4981 18.352C54.0101 17.584 54.8101 16.9867 55.8981 16.56C56.9861 16.112 58.4048 15.888 60.1541 15.888H64.7301V18.8H60.6981C59.5248 18.8 58.7141 18.992 58.2661 19.376C57.8395 19.76 57.6261 20.24 57.6261 20.816C57.6261 21.456 57.8715 21.968 58.3621 22.352C58.8741 22.7147 59.5675 22.896 60.4421 22.896C61.2741 22.896 62.0208 22.704 62.6821 22.32C63.3435 21.9147 63.8235 21.328 64.1221 20.56L64.8901 22.864C64.5275 23.9733 63.8661 24.816 62.9061 25.392C61.9461 25.968 60.7088 26.256 59.1941 26.256ZM80.6721 26.256C78.6455 26.256 77.0668 25.744 75.9361 24.72C74.8055 23.6747 74.2401 22.128 74.2401 20.08V4.976H79.2321V20.016C79.2321 20.7413 79.4241 21.3067 79.8081 21.712C80.1921 22.096 80.7148 22.288 81.3761 22.288C82.1655 22.288 82.8375 22.0747 83.3921 21.648L84.7361 25.168C84.2241 25.5307 83.6055 25.808 82.8801 26C82.1761 26.1707 81.4401 26.256 80.6721 26.256ZM71.5841 13.008V9.168H83.5201V13.008H71.5841ZM87.5384 26V8.784H92.5304V26H87.5384ZM90.0344 6.384C89.117 6.384 88.3704 6.11733 87.7944 5.584C87.2184 5.05067 86.9304 4.38933 86.9304 3.6C86.9304 2.81067 87.2184 2.14933 87.7944 1.616C88.3704 1.08267 89.117 0.815998 90.0344 0.815998C90.9517 0.815998 91.6984 1.072 92.2744 1.584C92.8504 2.07467 93.1384 2.71467 93.1384 3.504C93.1384 4.336 92.8504 5.02933 92.2744 5.584C91.7197 6.11733 90.973 6.384 90.0344 6.384ZM105.355 26.256C103.521 26.256 101.889 25.872 100.459 25.104C99.0514 24.336 97.9314 23.2907 97.0994 21.968C96.2887 20.624 95.8834 19.0987 95.8834 17.392C95.8834 15.664 96.2887 14.1387 97.0994 12.816C97.9314 11.472 99.0514 10.4267 100.459 9.68C101.889 8.912 103.521 8.528 105.355 8.528C107.169 8.528 108.79 8.912 110.219 9.68C111.649 10.4267 112.769 11.4613 113.579 12.784C114.39 14.1067 114.795 15.6427 114.795 17.392C114.795 19.0987 114.39 20.624 113.579 21.968C112.769 23.2907 111.649 24.336 110.219 25.104C108.79 25.872 107.169 26.256 105.355 26.256ZM105.355 22.16C106.187 22.16 106.934 21.968 107.595 21.584C108.257 21.2 108.779 20.656 109.163 19.952C109.547 19.2267 109.739 18.3733 109.739 17.392C109.739 16.3893 109.547 15.536 109.163 14.832C108.779 14.128 108.257 13.584 107.595 13.2C106.934 12.816 106.187 12.624 105.355 12.624C104.523 12.624 103.777 12.816 103.115 13.2C102.454 13.584 101.921 14.128 101.515 14.832C101.131 15.536 100.939 16.3893 100.939 17.392C100.939 18.3733 101.131 19.2267 101.515 19.952C101.921 20.656 102.454 21.2 103.115 21.584C103.777 21.968 104.523 22.16 105.355 22.16ZM128.596 8.528C129.961 8.528 131.177 8.80533 132.244 9.36C133.332 9.89333 134.185 10.7253 134.804 11.856C135.423 12.9653 135.732 14.3947 135.732 16.144V26H130.74V16.912C130.74 15.5253 130.431 14.5013 129.812 13.84C129.215 13.1787 128.361 12.848 127.252 12.848C126.463 12.848 125.748 13.0187 125.108 13.36C124.489 13.68 123.999 14.1813 123.636 14.864C123.295 15.5467 123.124 16.4213 123.124 17.488V26H118.132V8.784H122.9V13.552L122.004 12.112C122.623 10.96 123.508 10.0747 124.66 9.456C125.812 8.83733 127.124 8.528 128.596 8.528ZM146.049 26.256C144.577 26.256 143.158 26.0853 141.793 25.744C140.449 25.3813 139.382 24.9333 138.593 24.4L140.257 20.816C141.046 21.3067 141.974 21.712 143.041 22.032C144.129 22.3307 145.196 22.48 146.241 22.48C147.393 22.48 148.204 22.3413 148.673 22.064C149.164 21.7867 149.409 21.4027 149.409 20.912C149.409 20.5067 149.217 20.208 148.833 20.016C148.47 19.8027 147.98 19.6427 147.361 19.536C146.742 19.4293 146.06 19.3227 145.313 19.216C144.588 19.1093 143.852 18.9707 143.105 18.8C142.358 18.608 141.676 18.3307 141.057 17.968C140.438 17.6053 139.937 17.1147 139.553 16.496C139.19 15.8773 139.009 15.0773 139.009 14.096C139.009 13.008 139.318 12.048 139.937 11.216C140.577 10.384 141.494 9.73333 142.689 9.264C143.884 8.77333 145.313 8.528 146.977 8.528C148.15 8.528 149.345 8.656 150.561 8.912C151.777 9.168 152.79 9.54133 153.601 10.032L151.937 13.584C151.105 13.0933 150.262 12.7627 149.409 12.592C148.577 12.4 147.766 12.304 146.977 12.304C145.868 12.304 145.057 12.4533 144.545 12.752C144.033 13.0507 143.777 13.4347 143.777 13.904C143.777 14.3307 143.958 14.6507 144.321 14.864C144.705 15.0773 145.206 15.248 145.825 15.376C146.444 15.504 147.116 15.6213 147.841 15.728C148.588 15.8133 149.334 15.952 150.081 16.144C150.828 16.336 151.5 16.6133 152.097 16.976C152.716 17.3173 153.217 17.7973 153.601 18.416C153.985 19.0133 154.177 19.8027 154.177 20.784C154.177 21.8507 153.857 22.8 153.217 23.632C152.577 24.4427 151.649 25.0827 150.433 25.552C149.238 26.0213 147.777 26.256 146.049 26.256ZM176.88 26V22.64L176.56 21.904V15.888C176.56 14.8213 176.229 13.9893 175.568 13.392C174.928 12.7947 173.936 12.496 172.592 12.496C171.674 12.496 170.768 12.6453 169.872 12.944C168.997 13.2213 168.25 13.6053 167.632 14.096L165.84 10.608C166.778 9.94667 167.909 9.43467 169.232 9.072C170.554 8.70933 171.898 8.528 173.264 8.528C175.888 8.528 177.925 9.14667 179.376 10.384C180.826 11.6213 181.552 13.552 181.552 16.176V26H176.88ZM171.632 26.256C170.288 26.256 169.136 26.032 168.176 25.584C167.216 25.1147 166.48 24.4853 165.968 23.696C165.456 22.9067 165.2 22.0213 165.2 21.04C165.2 20.016 165.445 19.12 165.936 18.352C166.448 17.584 167.248 16.9867 168.336 16.56C169.424 16.112 170.842 15.888 172.592 15.888H177.168V18.8H173.136C171.962 18.8 171.152 18.992 170.704 19.376C170.277 19.76 170.064 20.24 170.064 20.816C170.064 21.456 170.309 21.968 170.8 22.352C171.312 22.7147 172.005 22.896 172.88 22.896C173.712 22.896 174.458 22.704 175.12 22.32C175.781 21.9147 176.261 21.328 176.56 20.56L177.328 22.864C176.965 23.9733 176.304 24.816 175.344 25.392C174.384 25.968 173.146 26.256 171.632 26.256ZM196.534 8.528C197.899 8.528 199.115 8.80533 200.182 9.36C201.27 9.89333 202.123 10.7253 202.742 11.856C203.36 12.9653 203.67 14.3947 203.67 16.144V26H198.678V16.912C198.678 15.5253 198.368 14.5013 197.75 13.84C197.152 13.1787 196.299 12.848 195.19 12.848C194.4 12.848 193.686 13.0187 193.046 13.36C192.427 13.68 191.936 14.1813 191.574 14.864C191.232 15.5467 191.062 16.4213 191.062 17.488V26H186.07V8.784H190.838V13.552L189.942 12.112C190.56 10.96 191.446 10.0747 192.598 9.456C193.75 8.83733 195.062 8.528 196.534 8.528ZM215.712 26.256C214.09 26.256 212.629 25.8933 211.328 25.168C210.026 24.4213 208.992 23.3867 208.224 22.064C207.477 20.7413 207.104 19.184 207.104 17.392C207.104 15.5787 207.477 14.0107 208.224 12.688C208.992 11.3653 210.026 10.3413 211.328 9.616C212.629 8.89067 214.09 8.528 215.712 8.528C217.162 8.528 218.432 8.848 219.52 9.488C220.608 10.128 221.45 11.0987 222.048 12.4C222.645 13.7013 222.944 15.3653 222.944 17.392C222.944 19.3973 222.656 21.0613 222.08 22.384C221.504 23.6853 220.672 24.656 219.584 25.296C218.517 25.936 217.226 26.256 215.712 26.256ZM216.576 22.16C217.386 22.16 218.122 21.968 218.784 21.584C219.445 21.2 219.968 20.656 220.352 19.952C220.757 19.2267 220.96 18.3733 220.96 17.392C220.96 16.3893 220.757 15.536 220.352 14.832C219.968 14.128 219.445 13.584 218.784 13.2C218.122 12.816 217.386 12.624 216.576 12.624C215.744 12.624 214.997 12.816 214.336 13.2C213.674 13.584 213.141 14.128 212.736 14.832C212.352 15.536 212.16 16.3893 212.16 17.392C212.16 18.3733 212.352 19.2267 212.736 19.952C213.141 20.656 213.674 21.2 214.336 21.584C214.997 21.968 215.744 22.16 216.576 22.16ZM221.088 26V22.48L221.184 17.36L220.864 12.272V2.256H225.856V26H221.088ZM244.69 13.68H255.442V17.84H244.69V13.68ZM245.074 26H239.89V3.6H256.818V7.76H245.074V26ZM266.834 26.256C265.404 26.256 264.124 25.9787 262.994 25.424C261.884 24.8693 261.02 24.0267 260.402 22.896C259.783 21.744 259.474 20.2827 259.474 18.512V8.784H264.466V17.776C264.466 19.2053 264.764 20.2613 265.362 20.944C265.98 21.6053 266.844 21.936 267.954 21.936C268.722 21.936 269.404 21.776 270.002 21.456C270.599 21.1147 271.068 20.6027 271.41 19.92C271.751 19.216 271.922 18.3413 271.922 17.296V8.784H276.914V26H272.178V21.264L273.042 22.64C272.466 23.8347 271.612 24.7413 270.482 25.36C269.372 25.9573 268.156 26.256 266.834 26.256ZM292.002 8.528C293.368 8.528 294.584 8.80533 295.65 9.36C296.738 9.89333 297.592 10.7253 298.21 11.856C298.829 12.9653 299.138 14.3947 299.138 16.144V26H294.146V16.912C294.146 15.5253 293.837 14.5013 293.218 13.84C292.621 13.1787 291.768 12.848 290.658 12.848C289.869 12.848 289.154 13.0187 288.514 13.36C287.896 13.68 287.405 14.1813 287.042 14.864C286.701 15.5467 286.53 16.4213 286.53 17.488V26H281.538V8.784H286.306V13.552L285.41 12.112C286.029 10.96 286.914 10.0747 288.066 9.456C289.218 8.83733 290.53 8.528 292.002 8.528ZM312.108 26.256C310.252 26.256 308.599 25.8827 307.148 25.136C305.698 24.368 304.556 23.312 303.724 21.968C302.914 20.624 302.508 19.0987 302.508 17.392C302.508 15.664 302.914 14.1387 303.724 12.816C304.556 11.472 305.698 10.4267 307.148 9.68C308.599 8.912 310.252 8.528 312.108 8.528C313.922 8.528 315.5 8.912 316.844 9.68C318.188 10.4267 319.18 11.504 319.82 12.912L315.948 14.992C315.5 14.1813 314.935 13.584 314.252 13.2C313.591 12.816 312.866 12.624 312.076 12.624C311.223 12.624 310.455 12.816 309.772 13.2C309.09 13.584 308.546 14.128 308.14 14.832C307.756 15.536 307.564 16.3893 307.564 17.392C307.564 18.3947 307.756 19.248 308.14 19.952C308.546 20.656 309.09 21.2 309.772 21.584C310.455 21.968 311.223 22.16 312.076 22.16C312.866 22.16 313.591 21.9787 314.252 21.616C314.935 21.232 315.5 20.624 315.948 19.792L319.82 21.904C319.18 23.2907 318.188 24.368 316.844 25.136C315.5 25.8827 313.922 26.256 312.108 26.256ZM329.985 26.256C327.958 26.256 326.379 25.744 325.249 24.72C324.118 23.6747 323.553 22.128 323.553 20.08V4.976H328.545V20.016C328.545 20.7413 328.737 21.3067 329.121 21.712C329.505 22.096 330.027 22.288 330.689 22.288C331.478 22.288 332.15 22.0747 332.705 21.648L334.049 25.168C333.537 25.5307 332.918 25.808 332.193 26C331.489 26.1707 330.753 26.256 329.985 26.256ZM320.897 13.008V9.168H332.833V13.008H320.897ZM336.851 26V8.784H341.843V26H336.851ZM339.347 6.384C338.43 6.384 337.683 6.11733 337.107 5.584C336.531 5.05067 336.243 4.38933 336.243 3.6C336.243 2.81067 336.531 2.14933 337.107 1.616C337.683 1.08267 338.43 0.815998 339.347 0.815998C340.264 0.815998 341.011 1.072 341.587 1.584C342.163 2.07467 342.451 2.71467 342.451 3.504C342.451 4.336 342.163 5.02933 341.587 5.584C341.032 6.11733 340.286 6.384 339.347 6.384ZM354.668 26.256C352.833 26.256 351.201 25.872 349.772 25.104C348.364 24.336 347.244 23.2907 346.412 21.968C345.601 20.624 345.196 19.0987 345.196 17.392C345.196 15.664 345.601 14.1387 346.412 12.816C347.244 11.472 348.364 10.4267 349.772 9.68C351.201 8.912 352.833 8.528 354.668 8.528C356.481 8.528 358.103 8.912 359.532 9.68C360.961 10.4267 362.081 11.4613 362.892 12.784C363.703 14.1067 364.108 15.6427 364.108 17.392C364.108 19.0987 363.703 20.624 362.892 21.968C362.081 23.2907 360.961 24.336 359.532 25.104C358.103 25.872 356.481 26.256 354.668 26.256ZM354.668 22.16C355.5 22.16 356.247 21.968 356.908 21.584C357.569 21.2 358.092 20.656 358.476 19.952C358.86 19.2267 359.052 18.3733 359.052 17.392C359.052 16.3893 358.86 15.536 358.476 14.832C358.092 14.128 357.569 13.584 356.908 13.2C356.247 12.816 355.5 12.624 354.668 12.624C353.836 12.624 353.089 12.816 352.428 13.2C351.767 13.584 351.233 14.128 350.828 14.832C350.444 15.536 350.252 16.3893 350.252 17.392C350.252 18.3733 350.444 19.2267 350.828 19.952C351.233 20.656 351.767 21.2 352.428 21.584C353.089 21.968 353.836 22.16 354.668 22.16ZM377.909 8.528C379.274 8.528 380.49 8.80533 381.557 9.36C382.645 9.89333 383.498 10.7253 384.117 11.856C384.735 12.9653 385.045 14.3947 385.045 16.144V26H380.053V16.912C380.053 15.5253 379.743 14.5013 379.125 13.84C378.527 13.1787 377.674 12.848 376.565 12.848C375.775 12.848 375.061 13.0187 374.421 13.36C373.802 13.68 373.311 14.1813 372.949 14.864C372.607 15.5467 372.437 16.4213 372.437 17.488V26H367.445V8.784H372.213V13.552L371.317 12.112C371.935 10.96 372.821 10.0747 373.973 9.456C375.125 8.83733 376.437 8.528 377.909 8.528ZM395.362 26.256C393.89 26.256 392.471 26.0853 391.106 25.744C389.762 25.3813 388.695 24.9333 387.906 24.4L389.57 20.816C390.359 21.3067 391.287 21.712 392.354 22.032C393.442 22.3307 394.508 22.48 395.554 22.48C396.706 22.48 397.516 22.3413 397.986 22.064C398.476 21.7867 398.722 21.4027 398.722 20.912C398.722 20.5067 398.53 20.208 398.146 20.016C397.783 19.8027 397.292 19.6427 396.674 19.536C396.055 19.4293 395.372 19.3227 394.626 19.216C393.9 19.1093 393.164 18.9707 392.418 18.8C391.671 18.608 390.988 18.3307 390.37 17.968C389.751 17.6053 389.25 17.1147 388.866 16.496C388.503 15.8773 388.322 15.0773 388.322 14.096C388.322 13.008 388.631 12.048 389.25 11.216C389.89 10.384 390.807 9.73333 392.002 9.264C393.196 8.77333 394.626 8.528 396.29 8.528C397.463 8.528 398.658 8.656 399.874 8.912C401.09 9.168 402.103 9.54133 402.914 10.032L401.25 13.584C400.418 13.0933 399.575 12.7627 398.722 12.592C397.89 12.4 397.079 12.304 396.29 12.304C395.18 12.304 394.37 12.4533 393.858 12.752C393.346 13.0507 393.09 13.4347 393.09 13.904C393.09 14.3307 393.271 14.6507 393.634 14.864C394.018 15.0773 394.519 15.248 395.138 15.376C395.756 15.504 396.428 15.6213 397.154 15.728C397.9 15.8133 398.647 15.952 399.394 16.144C400.14 16.336 400.812 16.6133 401.41 16.976C402.028 17.3173 402.53 17.7973 402.914 18.416C403.298 19.0133 403.49 19.8027 403.49 20.784C403.49 21.8507 403.17 22.8 402.53 23.632C401.89 24.4427 400.962 25.0827 399.746 25.552C398.551 26.0213 397.09 26.256 395.362 26.256ZM419.664 32.208C418.384 30.2667 417.392 28.0267 416.688 25.488C416.005 22.928 415.664 20.176 415.664 17.232C415.664 14.288 416.005 11.536 416.688 8.976C417.392 6.39467 418.384 4.15466 419.664 2.256H424.432C423.088 4.66667 422.107 7.09867 421.488 9.552C420.869 11.984 420.56 14.544 420.56 17.232C420.56 19.92 420.869 22.4907 421.488 24.944C422.107 27.376 423.088 29.7973 424.432 32.208H419.664ZM436.484 26V3.6H440.772L450.308 19.408H448.036L457.412 3.6H461.668L461.732 26H456.868L456.836 11.056H457.732L450.244 23.632H447.908L440.26 11.056H441.348V26H436.484ZM477.255 26V22.64L476.935 21.904V15.888C476.935 14.8213 476.604 13.9893 475.943 13.392C475.303 12.7947 474.311 12.496 472.967 12.496C472.049 12.496 471.143 12.6453 470.247 12.944C469.372 13.2213 468.625 13.6053 468.007 14.096L466.215 10.608C467.153 9.94667 468.284 9.43467 469.607 9.072C470.929 8.70933 472.273 8.528 473.639 8.528C476.263 8.528 478.3 9.14667 479.751 10.384C481.201 11.6213 481.927 13.552 481.927 16.176V26H477.255ZM472.007 26.256C470.663 26.256 469.511 26.032 468.551 25.584C467.591 25.1147 466.855 24.4853 466.343 23.696C465.831 22.9067 465.575 22.0213 465.575 21.04C465.575 20.016 465.82 19.12 466.311 18.352C466.823 17.584 467.623 16.9867 468.711 16.56C469.799 16.112 471.217 15.888 472.967 15.888H477.543V18.8H473.511C472.337 18.8 471.527 18.992 471.079 19.376C470.652 19.76 470.439 20.24 470.439 20.816C470.439 21.456 470.684 21.968 471.175 22.352C471.687 22.7147 472.38 22.896 473.255 22.896C474.087 22.896 474.833 22.704 475.495 22.32C476.156 21.9147 476.636 21.328 476.935 20.56L477.703 22.864C477.34 23.9733 476.679 24.816 475.719 25.392C474.759 25.968 473.521 26.256 472.007 26.256ZM493.485 26.256C491.458 26.256 489.879 25.744 488.749 24.72C487.618 23.6747 487.053 22.128 487.053 20.08V4.976H492.045V20.016C492.045 20.7413 492.237 21.3067 492.621 21.712C493.005 22.096 493.527 22.288 494.189 22.288C494.978 22.288 495.65 22.0747 496.205 21.648L497.549 25.168C497.037 25.5307 496.418 25.808 495.693 26C494.989 26.1707 494.253 26.256 493.485 26.256ZM484.397 13.008V9.168H496.333V13.008H484.397ZM510.815 8.528C512.18 8.528 513.396 8.80533 514.463 9.36C515.551 9.89333 516.404 10.7253 517.023 11.856C517.642 12.9653 517.951 14.3947 517.951 16.144V26H512.959V16.912C512.959 15.5253 512.65 14.5013 512.031 13.84C511.434 13.1787 510.58 12.848 509.471 12.848C508.682 12.848 507.967 13.0187 507.327 13.36C506.708 13.68 506.218 14.1813 505.855 14.864C505.514 15.5467 505.343 16.4213 505.343 17.488V26H500.351V2.256H505.343V13.552L504.223 12.112C504.842 10.96 505.727 10.0747 506.879 9.456C508.031 8.83733 509.343 8.528 510.815 8.528ZM531.145 26.256C529.182 26.256 527.454 25.872 525.961 25.104C524.489 24.336 523.348 23.2907 522.537 21.968C521.726 20.624 521.321 19.0987 521.321 17.392C521.321 15.664 521.716 14.1387 522.505 12.816C523.316 11.472 524.414 10.4267 525.801 9.68C527.188 8.912 528.756 8.528 530.505 8.528C532.19 8.528 533.705 8.89067 535.049 9.616C536.414 10.32 537.492 11.344 538.281 12.688C539.07 14.0107 539.465 15.6 539.465 17.456C539.465 17.648 539.454 17.872 539.433 18.128C539.412 18.3627 539.39 18.5867 539.369 18.8H525.385V15.888H536.745L534.825 16.752C534.825 15.856 534.644 15.0773 534.281 14.416C533.918 13.7547 533.417 13.2427 532.777 12.88C532.137 12.496 531.39 12.304 530.537 12.304C529.684 12.304 528.926 12.496 528.265 12.88C527.625 13.2427 527.124 13.7653 526.761 14.448C526.398 15.1093 526.217 15.8987 526.217 16.816V17.584C526.217 18.5227 526.42 19.3547 526.825 20.08C527.252 20.784 527.838 21.328 528.585 21.712C529.353 22.0747 530.249 22.256 531.273 22.256C532.19 22.256 532.99 22.1173 533.673 21.84C534.377 21.5627 535.017 21.1467 535.593 20.592L538.249 23.472C537.46 24.368 536.468 25.0613 535.273 25.552C534.078 26.0213 532.702 26.256 531.145 26.256ZM564.836 8.528C566.202 8.528 567.407 8.80533 568.452 9.36C569.519 9.89333 570.351 10.7253 570.948 11.856C571.567 12.9653 571.876 14.3947 571.876 16.144V26H566.884V16.912C566.884 15.5253 566.596 14.5013 566.02 13.84C565.444 13.1787 564.634 12.848 563.588 12.848C562.863 12.848 562.212 13.0187 561.636 13.36C561.06 13.68 560.612 14.1707 560.292 14.832C559.972 15.4933 559.812 16.336 559.812 17.36V26H554.82V16.912C554.82 15.5253 554.532 14.5013 553.956 13.84C553.402 13.1787 552.602 12.848 551.556 12.848C550.831 12.848 550.18 13.0187 549.604 13.36C549.028 13.68 548.58 14.1707 548.26 14.832C547.94 15.4933 547.78 16.336 547.78 17.36V26H542.788V8.784H547.556V13.488L546.66 12.112C547.258 10.9387 548.1 10.0533 549.188 9.456C550.298 8.83733 551.556 8.528 552.964 8.528C554.543 8.528 555.919 8.93333 557.092 9.744C558.287 10.5333 559.076 11.7493 559.46 13.392L557.7 12.912C558.276 11.568 559.194 10.5013 560.452 9.712C561.732 8.92267 563.194 8.528 564.836 8.528ZM586.911 26V22.64L586.591 21.904V15.888C586.591 14.8213 586.26 13.9893 585.599 13.392C584.959 12.7947 583.967 12.496 582.623 12.496C581.706 12.496 580.799 12.6453 579.903 12.944C579.028 13.2213 578.282 13.6053 577.663 14.096L575.871 10.608C576.81 9.94667 577.94 9.43467 579.263 9.072C580.586 8.70933 581.93 8.528 583.295 8.528C585.919 8.528 587.956 9.14667 589.407 10.384C590.858 11.6213 591.583 13.552 591.583 16.176V26H586.911ZM581.663 26.256C580.319 26.256 579.167 26.032 578.207 25.584C577.247 25.1147 576.511 24.4853 575.999 23.696C575.487 22.9067 575.231 22.0213 575.231 21.04C575.231 20.016 575.476 19.12 575.967 18.352C576.479 17.584 577.279 16.9867 578.367 16.56C579.455 16.112 580.874 15.888 582.623 15.888H587.199V18.8H583.167C581.994 18.8 581.183 18.992 580.735 19.376C580.308 19.76 580.095 20.24 580.095 20.816C580.095 21.456 580.34 21.968 580.831 22.352C581.343 22.7147 582.036 22.896 582.911 22.896C583.743 22.896 584.49 22.704 585.151 22.32C585.812 21.9147 586.292 21.328 586.591 20.56L587.359 22.864C586.996 23.9733 586.335 24.816 585.375 25.392C584.415 25.968 583.178 26.256 581.663 26.256ZM603.141 26.256C601.114 26.256 599.536 25.744 598.405 24.72C597.274 23.6747 596.709 22.128 596.709 20.08V4.976H601.701V20.016C601.701 20.7413 601.893 21.3067 602.277 21.712C602.661 22.096 603.184 22.288 603.845 22.288C604.634 22.288 605.306 22.0747 605.861 21.648L607.205 25.168C606.693 25.5307 606.074 25.808 605.349 26C604.645 26.1707 603.909 26.256 603.141 26.256ZM594.053 13.008V9.168H605.989V13.008H594.053ZM610.007 26V8.784H614.999V26H610.007ZM612.503 6.384C611.586 6.384 610.839 6.11733 610.263 5.584C609.687 5.05067 609.399 4.38933 609.399 3.6C609.399 2.81067 609.687 2.14933 610.263 1.616C610.839 1.08267 611.586 0.815998 612.503 0.815998C613.42 0.815998 614.167 1.072 614.743 1.584C615.319 2.07467 615.607 2.71467 615.607 3.504C615.607 4.336 615.319 5.02933 614.743 5.584C614.188 6.11733 613.442 6.384 612.503 6.384ZM627.952 26.256C626.096 26.256 624.443 25.8827 622.992 25.136C621.541 24.368 620.4 23.312 619.568 21.968C618.757 20.624 618.352 19.0987 618.352 17.392C618.352 15.664 618.757 14.1387 619.568 12.816C620.4 11.472 621.541 10.4267 622.992 9.68C624.443 8.912 626.096 8.528 627.952 8.528C629.765 8.528 631.344 8.912 632.688 9.68C634.032 10.4267 635.024 11.504 635.664 12.912L631.792 14.992C631.344 14.1813 630.779 13.584 630.096 13.2C629.435 12.816 628.709 12.624 627.92 12.624C627.067 12.624 626.299 12.816 625.616 13.2C624.933 13.584 624.389 14.128 623.984 14.832C623.6 15.536 623.408 16.3893 623.408 17.392C623.408 18.3947 623.6 19.248 623.984 19.952C624.389 20.656 624.933 21.2 625.616 21.584C626.299 21.968 627.067 22.16 627.92 22.16C628.709 22.16 629.435 21.9787 630.096 21.616C630.779 21.232 631.344 20.624 631.792 19.792L635.664 21.904C635.024 23.2907 634.032 24.368 632.688 25.136C631.344 25.8827 629.765 26.256 627.952 26.256ZM644.33 26.256C642.858 26.256 641.44 26.0853 640.074 25.744C638.73 25.3813 637.664 24.9333 636.874 24.4L638.538 20.816C639.328 21.3067 640.256 21.712 641.322 22.032C642.41 22.3307 643.477 22.48 644.522 22.48C645.674 22.48 646.485 22.3413 646.954 22.064C647.445 21.7867 647.69 21.4027 647.69 20.912C647.69 20.5067 647.498 20.208 647.114 20.016C646.752 19.8027 646.261 19.6427 645.642 19.536C645.024 19.4293 644.341 19.3227 643.594 19.216C642.869 19.1093 642.133 18.9707 641.386 18.8C640.64 18.608 639.957 18.3307 639.338 17.968C638.72 17.6053 638.218 17.1147 637.834 16.496C637.472 15.8773 637.29 15.0773 637.29 14.096C637.29 13.008 637.6 12.048 638.218 11.216C638.858 10.384 639.776 9.73333 640.97 9.264C642.165 8.77333 643.594 8.528 645.258 8.528C646.432 8.528 647.626 8.656 648.842 8.912C650.058 9.168 651.072 9.54133 651.882 10.032L650.218 13.584C649.386 13.0933 648.544 12.7627 647.69 12.592C646.858 12.4 646.048 12.304 645.258 12.304C644.149 12.304 643.338 12.4533 642.826 12.752C642.314 13.0507 642.058 13.4347 642.058 13.904C642.058 14.3307 642.24 14.6507 642.602 14.864C642.986 15.0773 643.488 15.248 644.106 15.376C644.725 15.504 645.397 15.6213 646.122 15.728C646.869 15.8133 647.616 15.952 648.362 16.144C649.109 16.336 649.781 16.6133 650.378 16.976C650.997 17.3173 651.498 17.7973 651.882 18.416C652.266 19.0133 652.458 19.8027 652.458 20.784C652.458 21.8507 652.138 22.8 651.498 23.632C650.858 24.4427 649.93 25.0827 648.714 25.552C647.52 26.0213 646.058 26.256 644.33 26.256ZM667.385 32.208H662.617C664.004 29.7973 664.996 27.376 665.593 24.944C666.212 22.4907 666.521 19.92 666.521 17.232C666.521 14.544 666.212 11.984 665.593 9.552C664.996 7.09867 664.004 4.66667 662.617 2.256H667.385C668.708 4.15466 669.71 6.39467 670.393 8.976C671.076 11.536 671.417 14.288 671.417 17.232C671.417 20.176 671.076 22.928 670.393 25.488C669.71 28.0267 668.708 30.2667 667.385 32.208Z" fill="url(#paint0_linear_1_111)"/>
<defs>
<linearGradient id="paint0_linear_1_111" x1="336" y1="-5" x2="336" y2="34" gradientUnits="userSpaceOnUse">
<stop stop-color="#06286E"/>
<stop offset="1" stop-color="#164EC0"/>
</linearGradient>
</defs>
</svg>
