<svg width="546" height="30" viewBox="0 0 546 30" fill="none" xmlns="http://www.w3.org/2000/svg">
<path d="M21.1548 5.63778C21.098 5.06487 20.8542 4.61979 20.4233 4.30256C19.9924 3.98532 19.4077 3.8267 18.669 3.8267C18.1671 3.8267 17.7434 3.89773 17.3977 4.03977C17.0521 4.17708 16.7869 4.36884 16.6023 4.61506C16.4223 4.86127 16.3324 5.14062 16.3324 5.45312C16.3229 5.71354 16.3774 5.94081 16.4957 6.13494C16.6188 6.32907 16.7869 6.49716 17 6.6392C17.2131 6.77651 17.4593 6.89725 17.7386 7.00142C18.018 7.10085 18.3163 7.18608 18.6335 7.2571L19.9403 7.5696C20.5748 7.71165 21.1572 7.90104 21.6875 8.13778C22.2178 8.37453 22.6771 8.66572 23.0653 9.01136C23.4536 9.35701 23.7543 9.7642 23.9673 10.233C24.1851 10.7017 24.2964 11.2391 24.3011 11.8452C24.2964 12.7353 24.0691 13.5071 23.6193 14.1605C23.1742 14.8092 22.5303 15.3134 21.6875 15.6733C20.8494 16.0284 19.8385 16.206 18.6548 16.206C17.4806 16.206 16.4579 16.026 15.5866 15.6662C14.7202 15.3063 14.0431 14.7737 13.5554 14.0682C13.0724 13.358 12.8191 12.4796 12.7955 11.4332H15.7713C15.8045 11.9209 15.9441 12.3281 16.1903 12.6548C16.4413 12.9768 16.7751 13.2206 17.1918 13.3864C17.6132 13.5473 18.089 13.6278 18.6193 13.6278C19.1402 13.6278 19.5923 13.5521 19.9759 13.4006C20.3641 13.2491 20.6648 13.0384 20.8778 12.7685C21.0909 12.4986 21.1974 12.1884 21.1974 11.8381C21.1974 11.5114 21.1004 11.2367 20.9062 11.0142C20.7169 10.7917 20.4375 10.6023 20.0682 10.446C19.7036 10.2898 19.2562 10.1477 18.7259 10.0199L17.142 9.62216C15.9157 9.32386 14.9474 8.85748 14.2372 8.22301C13.527 7.58854 13.1742 6.7339 13.179 5.65909C13.1742 4.77841 13.4086 4.009 13.8821 3.35085C14.3603 2.69271 15.0161 2.17898 15.8494 1.80966C16.6828 1.44034 17.6297 1.25568 18.6903 1.25568C19.7699 1.25568 20.7121 1.44034 21.517 1.80966C22.3267 2.17898 22.9564 2.69271 23.4062 3.35085C23.8561 4.009 24.0881 4.77131 24.1023 5.63778H21.1548ZM32.1154 5.09091V7.36364H25.5458V5.09091H32.1154ZM27.0373 2.47727H30.0629V12.6477C30.0629 12.9271 30.1055 13.1449 30.1907 13.3011C30.2759 13.4527 30.3943 13.5592 30.5458 13.6207C30.7021 13.6823 30.882 13.7131 31.0856 13.7131C31.2276 13.7131 31.3697 13.7012 31.5117 13.6776C31.6538 13.6491 31.7627 13.6278 31.8384 13.6136L32.3143 15.8651C32.1628 15.9124 31.9497 15.9669 31.6751 16.0284C31.4004 16.0947 31.0666 16.1349 30.6737 16.1491C29.9445 16.1776 29.3053 16.0805 28.756 15.858C28.2115 15.6354 27.7878 15.2898 27.4847 14.821C27.1817 14.3523 27.0326 13.7604 27.0373 13.0455V2.47727ZM41.082 11.3551V5.09091H44.1076V16H41.2028V14.0185H41.0891C40.8429 14.6577 40.4334 15.1714 39.8604 15.5597C39.2923 15.9479 38.5986 16.142 37.7795 16.142C37.0503 16.142 36.4087 15.9763 35.8548 15.6449C35.3008 15.3134 34.8675 14.8423 34.555 14.2315C34.2473 13.6207 34.091 12.8892 34.0863 12.0369V5.09091H37.1119V11.4972C37.1166 12.1411 37.2894 12.6501 37.6303 13.0241C37.9712 13.3982 38.4281 13.5852 39.0011 13.5852C39.3656 13.5852 39.7066 13.5024 40.0238 13.3366C40.341 13.1662 40.5967 12.9152 40.7908 12.5838C40.9897 12.2524 41.0868 11.8428 41.082 11.3551ZM50.5476 16.1776C49.719 16.1776 48.9685 15.9645 48.2962 15.5384C47.6286 15.1075 47.0982 14.4754 46.7053 13.642C46.317 12.804 46.1229 11.7765 46.1229 10.5597C46.1229 9.30966 46.3241 8.27036 46.7266 7.44176C47.129 6.60843 47.6641 5.9858 48.3317 5.57386C49.004 5.1572 49.7403 4.94886 50.5405 4.94886C51.1513 4.94886 51.6603 5.05303 52.0675 5.26136C52.4794 5.46496 52.8108 5.72064 53.0618 6.02841C53.3175 6.33144 53.5116 6.62973 53.6442 6.9233H53.7365V1.45455H56.755V16H53.772V14.2528H53.6442C53.5021 14.5559 53.3009 14.8565 53.0405 15.1548C52.7848 15.4484 52.451 15.6922 52.0391 15.8864C51.6319 16.0805 51.1347 16.1776 50.5476 16.1776ZM51.5064 13.7699C51.9941 13.7699 52.406 13.6373 52.7422 13.3722C53.0831 13.1023 53.3435 12.7259 53.5234 12.2429C53.7081 11.7599 53.8004 11.1941 53.8004 10.5455C53.8004 9.89678 53.7105 9.33333 53.5305 8.85511C53.3506 8.37689 53.0902 8.00758 52.7493 7.74716C52.4084 7.48674 51.9941 7.35653 51.5064 7.35653C51.0092 7.35653 50.5902 7.49148 50.2493 7.76136C49.9084 8.03125 49.6503 8.4053 49.4751 8.88352C49.3 9.36174 49.2124 9.91572 49.2124 10.5455C49.2124 11.1799 49.3 11.741 49.4751 12.2287C49.6551 12.7116 49.9131 13.0904 50.2493 13.3651C50.5902 13.6349 51.0092 13.7699 51.5064 13.7699ZM61.1104 20.0909C60.7269 20.0909 60.3671 20.0601 60.0309 19.9986C59.6995 19.9418 59.4248 19.8684 59.207 19.7784L59.8888 17.5199C60.244 17.6288 60.5636 17.688 60.8477 17.6974C61.1365 17.7069 61.3851 17.6406 61.5934 17.4986C61.8065 17.3565 61.9793 17.1151 62.1119 16.7741L62.2894 16.3125L58.3761 5.09091H61.5579L63.8164 13.1023H63.93L66.2099 5.09091H69.413L65.1729 17.179C64.9693 17.7661 64.6924 18.2775 64.342 18.7131C63.9963 19.1534 63.5584 19.492 63.0281 19.7287C62.4978 19.9702 61.8585 20.0909 61.1104 20.0909Z" fill="#06286E"/>
<line x1="1" y1="29" x2="81" y2="29" stroke="#06286E" stroke-width="2" stroke-linecap="round"/>
<path d="M140.946 11.2841H143.105L144.625 13.2656L145.342 14.1463L147.764 17.3068H145.52L143.901 15.1974L143.347 14.4304L140.946 11.2841ZM148.233 8.72727C148.233 10.2803 147.949 11.6155 147.381 12.733C146.813 13.8456 146.034 14.7027 145.044 15.304C144.059 15.9006 142.939 16.1989 141.685 16.1989C140.425 16.1989 139.301 15.9006 138.311 15.304C137.326 14.7027 136.55 13.8433 135.982 12.7259C135.413 11.6084 135.129 10.2756 135.129 8.72727C135.129 7.17424 135.413 5.84138 135.982 4.72869C136.55 3.61127 137.326 2.75426 138.311 2.15767C139.301 1.55634 140.425 1.25568 141.685 1.25568C142.939 1.25568 144.059 1.55634 145.044 2.15767C146.034 2.75426 146.813 3.61127 147.381 4.72869C147.949 5.84138 148.233 7.17424 148.233 8.72727ZM146.06 8.72727C146.06 7.54356 145.868 6.54687 145.484 5.73722C145.106 4.92282 144.585 4.30729 143.922 3.89062C143.264 3.46922 142.518 3.25852 141.685 3.25852C140.847 3.25852 140.098 3.46922 139.44 3.89062C138.782 4.30729 138.261 4.92282 137.878 5.73722C137.499 6.54687 137.31 7.54356 137.31 8.72727C137.31 9.91098 137.499 10.91 137.878 11.7244C138.261 12.5341 138.782 13.1496 139.44 13.571C140.098 13.9877 140.847 14.196 141.685 14.196C142.518 14.196 143.264 13.9877 143.922 13.571C144.585 13.1496 145.106 12.5341 145.484 11.7244C145.868 10.91 146.06 9.91098 146.06 8.72727ZM157.709 11.4759V5.09091H159.84V16H157.752V14.1108H157.638C157.387 14.6932 156.985 15.1785 156.431 15.5668C155.882 15.9503 155.197 16.142 154.378 16.142C153.677 16.142 153.057 15.9882 152.517 15.6804C151.982 15.3679 151.561 14.9062 151.253 14.2955C150.95 13.6847 150.799 12.9295 150.799 12.0298V5.09091H152.922V11.7741C152.922 12.5175 153.128 13.1094 153.54 13.5497C153.952 13.9901 154.487 14.2102 155.145 14.2102C155.543 14.2102 155.938 14.1108 156.331 13.9119C156.729 13.7131 157.058 13.4124 157.319 13.0099C157.584 12.6075 157.714 12.0961 157.709 11.4759ZM162.693 16V5.09091H164.817V16H162.693ZM163.766 3.40767C163.396 3.40767 163.079 3.28456 162.814 3.03835C162.554 2.7874 162.423 2.48911 162.423 2.14347C162.423 1.79309 162.554 1.49479 162.814 1.24858C163.079 0.997632 163.396 0.872159 163.766 0.872159C164.135 0.872159 164.45 0.997632 164.71 1.24858C164.975 1.49479 165.108 1.79309 165.108 2.14347C165.108 2.48911 164.975 2.7874 164.71 3.03835C164.45 3.28456 164.135 3.40767 163.766 3.40767ZM167.446 16V14.544L173.355 7.03693V6.9375H167.638V5.09091H176.005V6.6392L170.323 14.054V14.1534H176.203V16H167.446Z" fill="#696671"/>
<line x1="123" y1="29" x2="189" y2="29" stroke="#F9F9F9" stroke-width="2" stroke-linecap="round"/>
<path d="M242.881 3.34375V1.45455H254.138V3.34375H249.599V16H247.412V3.34375H242.881ZM259.575 16.2202C258.5 16.2202 257.574 15.9905 256.798 15.5312C256.026 15.0672 255.429 14.4162 255.008 13.5781C254.591 12.7353 254.383 11.7481 254.383 10.6165C254.383 9.49905 254.591 8.5142 255.008 7.66193C255.429 6.80966 256.016 6.14441 256.769 5.66619C257.527 5.18797 258.412 4.94886 259.425 4.94886C260.041 4.94886 260.638 5.05066 261.215 5.25426C261.793 5.45786 262.311 5.77746 262.771 6.21307C263.23 6.64867 263.592 7.21449 263.857 7.91051C264.122 8.6018 264.255 9.44223 264.255 10.4318V11.1847H255.583V9.59375H262.174C262.174 9.03504 262.06 8.54025 261.833 8.10938C261.606 7.67377 261.286 7.33049 260.874 7.07955C260.467 6.8286 259.989 6.70312 259.44 6.70312C258.843 6.70312 258.322 6.84991 257.877 7.14347C257.437 7.43229 257.096 7.81108 256.854 8.27983C256.618 8.74384 256.499 9.24811 256.499 9.79261V11.0355C256.499 11.7647 256.627 12.3849 256.883 12.8963C257.143 13.4077 257.505 13.7983 257.969 14.0682C258.433 14.3333 258.976 14.4659 259.596 14.4659C259.998 14.4659 260.365 14.4091 260.697 14.2955C261.028 14.1771 261.315 14.0019 261.556 13.7699C261.798 13.5379 261.982 13.2514 262.11 12.9105L264.12 13.2727C263.959 13.8646 263.67 14.383 263.254 14.8281C262.842 15.2685 262.323 15.6117 261.698 15.858C261.078 16.0994 260.37 16.2202 259.575 16.2202ZM274.786 7.75426L272.861 8.09517C272.781 7.84896 272.653 7.61458 272.478 7.39205C272.307 7.16951 272.075 6.98722 271.782 6.84517C271.488 6.70312 271.121 6.6321 270.681 6.6321C270.079 6.6321 269.578 6.76705 269.175 7.03693C268.773 7.30208 268.571 7.64536 268.571 8.06676C268.571 8.43134 268.706 8.72491 268.976 8.94744C269.246 9.16998 269.682 9.35227 270.283 9.49432L272.016 9.89205C273.02 10.1241 273.768 10.4815 274.26 10.9645C274.753 11.4474 274.999 12.0748 274.999 12.8466C274.999 13.5 274.81 14.0824 274.431 14.5938C274.057 15.1004 273.533 15.4981 272.861 15.7869C272.194 16.0758 271.419 16.2202 270.539 16.2202C269.317 16.2202 268.32 15.9598 267.549 15.4389C266.777 14.9134 266.303 14.1676 266.128 13.2017L268.181 12.8892C268.309 13.4242 268.571 13.8291 268.969 14.1037C269.367 14.3736 269.885 14.5085 270.525 14.5085C271.221 14.5085 271.777 14.3641 272.194 14.0753C272.61 13.7817 272.819 13.4242 272.819 13.0028C272.819 12.6619 272.691 12.3755 272.435 12.1435C272.184 11.9115 271.798 11.7363 271.277 11.6179L269.431 11.2131C268.413 10.9811 267.66 10.6117 267.172 10.1051C266.689 9.59848 266.448 8.95691 266.448 8.1804C266.448 7.53646 266.628 6.97301 266.988 6.49006C267.347 6.0071 267.845 5.63068 268.479 5.3608C269.114 5.08617 269.84 4.94886 270.659 4.94886C271.838 4.94886 272.766 5.20455 273.444 5.71591C274.121 6.22254 274.568 6.90199 274.786 7.75426ZM282.426 5.09091V6.79545H276.467V5.09091H282.426ZM278.065 2.47727H280.189V12.7969C280.189 13.2088 280.25 13.5189 280.374 13.7273C280.497 13.9309 280.655 14.0705 280.849 14.1463C281.048 14.2173 281.264 14.2528 281.496 14.2528C281.666 14.2528 281.815 14.241 281.943 14.2173C282.071 14.1937 282.17 14.1747 282.241 14.1605L282.625 15.9148C282.502 15.9621 282.327 16.0095 282.099 16.0568C281.872 16.1089 281.588 16.1373 281.247 16.142C280.688 16.1515 280.168 16.0521 279.685 15.8438C279.202 15.6354 278.811 15.3134 278.513 14.8778C278.214 14.4422 278.065 13.8954 278.065 13.2372V2.47727Z" fill="#696671"/>
<line x1="231" y1="29" x2="295" y2="29" stroke="#F9F9F9" stroke-width="2" stroke-linecap="round"/>
<path d="M359.442 6.04972C359.304 5.61884 359.12 5.23295 358.888 4.89205C358.661 4.5464 358.388 4.25284 358.071 4.01136C357.754 3.76515 357.392 3.57812 356.984 3.45028C356.582 3.32244 356.139 3.25852 355.656 3.25852C354.837 3.25852 354.098 3.46922 353.44 3.89062C352.782 4.31203 352.261 4.92992 351.878 5.74432C351.499 6.55398 351.31 7.54593 351.31 8.72017C351.31 9.89915 351.501 10.8958 351.885 11.7102C352.268 12.5246 352.794 13.1425 353.462 13.5639C354.129 13.9853 354.889 14.196 355.741 14.196C356.532 14.196 357.221 14.035 357.808 13.7131C358.4 13.3911 358.857 12.9366 359.179 12.3494C359.506 11.7576 359.669 11.0616 359.669 10.2614L360.237 10.3679H356.075V8.55682H361.793V10.2116C361.793 11.4332 361.532 12.4938 361.011 13.3935C360.495 14.2884 359.78 14.9796 358.866 15.4673C357.957 15.955 356.916 16.1989 355.741 16.1989C354.425 16.1989 353.27 15.8958 352.276 15.2898C351.286 14.6837 350.514 13.8243 349.96 12.7116C349.406 11.5942 349.129 10.2685 349.129 8.73438C349.129 7.57434 349.29 6.53267 349.612 5.60938C349.934 4.68608 350.386 3.90246 350.969 3.25852C351.556 2.60985 352.245 2.11506 353.036 1.77415C353.831 1.4285 354.7 1.25568 355.642 1.25568C356.428 1.25568 357.16 1.37169 357.837 1.60369C358.518 1.8357 359.125 2.16477 359.655 2.59091C360.19 3.01705 360.633 3.52367 360.983 4.1108C361.333 4.69318 361.57 5.33949 361.693 6.04972H359.442ZM367.583 16.2415C366.891 16.2415 366.266 16.1136 365.708 15.858C365.149 15.5975 364.706 15.2211 364.38 14.7287C364.058 14.2363 363.897 13.6326 363.897 12.9176C363.897 12.3021 364.015 11.7955 364.252 11.3977C364.489 11 364.808 10.6851 365.211 10.4531C365.613 10.2211 366.063 10.0459 366.56 9.92756C367.057 9.80919 367.564 9.71922 368.08 9.65767C368.733 9.58191 369.264 9.52036 369.671 9.47301C370.078 9.42093 370.374 9.33807 370.559 9.22443C370.743 9.1108 370.836 8.92614 370.836 8.67045V8.62074C370.836 8.00047 370.66 7.51989 370.31 7.17898C369.964 6.83807 369.448 6.66761 368.762 6.66761C368.047 6.66761 367.483 6.82623 367.071 7.14347C366.664 7.45597 366.382 7.80398 366.226 8.1875L364.23 7.73295C364.467 7.07008 364.813 6.53504 365.267 6.12784C365.727 5.71591 366.255 5.41761 366.851 5.23295C367.448 5.04356 368.075 4.94886 368.733 4.94886C369.169 4.94886 369.631 5.00095 370.118 5.10511C370.611 5.20455 371.07 5.3892 371.496 5.65909C371.927 5.92898 372.28 6.31487 372.554 6.81676C372.829 7.31392 372.966 7.96023 372.966 8.75568V16H370.892V14.5085H370.807C370.67 14.7831 370.464 15.053 370.189 15.3182C369.915 15.5833 369.562 15.8035 369.131 15.9787C368.7 16.1539 368.184 16.2415 367.583 16.2415ZM368.044 14.5369C368.632 14.5369 369.133 14.4209 369.55 14.1889C369.971 13.9569 370.291 13.6539 370.509 13.2798C370.731 12.901 370.843 12.4962 370.843 12.0653V10.6591C370.767 10.7348 370.62 10.8059 370.402 10.8722C370.189 10.9337 369.945 10.9882 369.671 11.0355C369.396 11.0781 369.129 11.1184 368.868 11.1562C368.608 11.1894 368.39 11.2178 368.215 11.2415C367.803 11.2936 367.426 11.3812 367.086 11.5043C366.749 11.6274 366.48 11.8049 366.276 12.0369C366.077 12.2642 365.978 12.5672 365.978 12.946C365.978 13.4716 366.172 13.8693 366.56 14.1392C366.948 14.4044 367.443 14.5369 368.044 14.5369ZM375.795 16V5.09091H377.833V6.86648H377.968C378.195 6.26515 378.567 5.7964 379.083 5.46023C379.599 5.11932 380.217 4.94886 380.937 4.94886C381.666 4.94886 382.277 5.11932 382.769 5.46023C383.266 5.80114 383.633 6.26989 383.87 6.86648H383.984C384.244 6.28409 384.658 5.82008 385.227 5.47443C385.795 5.12405 386.472 4.94886 387.258 4.94886C388.247 4.94886 389.055 5.259 389.68 5.87926C390.309 6.49953 390.624 7.43466 390.624 8.68466V16H388.501V8.88352C388.501 8.14489 388.299 7.60985 387.897 7.27841C387.495 6.94697 387.014 6.78125 386.455 6.78125C385.764 6.78125 385.227 6.99432 384.843 7.42045C384.46 7.84186 384.268 8.384 384.268 9.04688V16H382.151V8.74858C382.151 8.15672 381.967 7.68087 381.597 7.32102C381.228 6.96117 380.747 6.78125 380.156 6.78125C379.753 6.78125 379.381 6.88778 379.04 7.10085C378.704 7.30919 378.432 7.60038 378.224 7.97443C378.02 8.34848 377.918 8.78172 377.918 9.27415V16H375.795ZM398.172 16.2202C397.097 16.2202 396.172 15.9905 395.395 15.5312C394.623 15.0672 394.027 14.4162 393.605 13.5781C393.189 12.7353 392.98 11.7481 392.98 10.6165C392.98 9.49905 393.189 8.5142 393.605 7.66193C394.027 6.80966 394.614 6.14441 395.367 5.66619C396.124 5.18797 397.01 4.94886 398.023 4.94886C398.639 4.94886 399.235 5.05066 399.813 5.25426C400.391 5.45786 400.909 5.77746 401.368 6.21307C401.828 6.64867 402.19 7.21449 402.455 7.91051C402.72 8.6018 402.853 9.44223 402.853 10.4318V11.1847H394.181V9.59375H400.772C400.772 9.03504 400.658 8.54025 400.431 8.10938C400.203 7.67377 399.884 7.33049 399.472 7.07955C399.065 6.8286 398.587 6.70312 398.037 6.70312C397.441 6.70312 396.92 6.84991 396.475 7.14347C396.034 7.43229 395.694 7.81108 395.452 8.27983C395.215 8.74384 395.097 9.24811 395.097 9.79261V11.0355C395.097 11.7647 395.225 12.3849 395.48 12.8963C395.741 13.4077 396.103 13.7983 396.567 14.0682C397.031 14.3333 397.573 14.4659 398.194 14.4659C398.596 14.4659 398.963 14.4091 399.294 14.2955C399.626 14.1771 399.912 14.0019 400.154 13.7699C400.395 13.5379 400.58 13.2514 400.708 12.9105L402.718 13.2727C402.557 13.8646 402.268 14.383 401.851 14.8281C401.439 15.2685 400.921 15.6117 400.296 15.858C399.676 16.0994 398.968 16.2202 398.172 16.2202Z" fill="#696671"/>
<line x1="337" y1="29" x2="415" y2="29" stroke="#F9F9F9" stroke-width="2" stroke-linecap="round"/>
<path d="M482.233 8.72727C482.233 10.2803 481.949 11.6155 481.381 12.733C480.813 13.8456 480.034 14.7027 479.044 15.304C478.059 15.9006 476.939 16.1989 475.685 16.1989C474.425 16.1989 473.301 15.9006 472.311 15.304C471.326 14.7027 470.55 13.8433 469.982 12.7259C469.413 11.6084 469.129 10.2756 469.129 8.72727C469.129 7.17424 469.413 5.84138 469.982 4.72869C470.55 3.61127 471.326 2.75426 472.311 2.15767C473.301 1.55634 474.425 1.25568 475.685 1.25568C476.939 1.25568 478.059 1.55634 479.044 2.15767C480.034 2.75426 480.813 3.61127 481.381 4.72869C481.949 5.84138 482.233 7.17424 482.233 8.72727ZM480.06 8.72727C480.06 7.54356 479.868 6.54687 479.484 5.73722C479.106 4.92282 478.585 4.30729 477.922 3.89062C477.264 3.46922 476.518 3.25852 475.685 3.25852C474.847 3.25852 474.098 3.46922 473.44 3.89062C472.782 4.30729 472.261 4.92282 471.878 5.73722C471.499 6.54687 471.31 7.54356 471.31 8.72727C471.31 9.91098 471.499 10.91 471.878 11.7244C472.261 12.5341 472.782 13.1496 473.44 13.571C474.098 13.9877 474.847 14.196 475.685 14.196C476.518 14.196 477.264 13.9877 477.922 13.571C478.585 13.1496 479.106 12.5341 479.484 11.7244C479.868 10.91 480.06 9.91098 480.06 8.72727ZM489.891 5.09091V6.79545H483.932V5.09091H489.891ZM485.53 2.47727H487.654V12.7969C487.654 13.2088 487.715 13.5189 487.838 13.7273C487.962 13.9309 488.12 14.0705 488.314 14.1463C488.513 14.2173 488.729 14.2528 488.961 14.2528C489.131 14.2528 489.28 14.241 489.408 14.2173C489.536 14.1937 489.635 14.1747 489.706 14.1605L490.09 15.9148C489.967 15.9621 489.792 16.0095 489.564 16.0568C489.337 16.1089 489.053 16.1373 488.712 16.142C488.153 16.1515 487.632 16.0521 487.15 15.8438C486.667 15.6354 486.276 15.3134 485.978 14.8778C485.679 14.4422 485.53 13.8954 485.53 13.2372V2.47727ZM494.598 9.52273V16H492.474V1.45455H494.57V6.86648H494.705C494.96 6.27936 495.351 5.81297 495.876 5.46733C496.402 5.12169 497.089 4.94886 497.936 4.94886C498.684 4.94886 499.338 5.10275 499.896 5.41051C500.46 5.71828 500.895 6.17756 501.203 6.78835C501.516 7.39441 501.672 8.15199 501.672 9.06108V16H499.548V9.31676C499.548 8.51657 499.342 7.89631 498.93 7.45597C498.518 7.01089 497.946 6.78835 497.212 6.78835C496.71 6.78835 496.26 6.89489 495.862 7.10795C495.469 7.32102 495.159 7.63352 494.932 8.04545C494.709 8.45265 494.598 8.94508 494.598 9.52273ZM509.207 16.2202C508.133 16.2202 507.207 15.9905 506.43 15.5312C505.659 15.0672 505.062 14.4162 504.641 13.5781C504.224 12.7353 504.016 11.7481 504.016 10.6165C504.016 9.49905 504.224 8.5142 504.641 7.66193C505.062 6.80966 505.649 6.14441 506.402 5.66619C507.16 5.18797 508.045 4.94886 509.058 4.94886C509.674 4.94886 510.27 5.05066 510.848 5.25426C511.426 5.45786 511.944 5.77746 512.403 6.21307C512.863 6.64867 513.225 7.21449 513.49 7.91051C513.755 8.6018 513.888 9.44223 513.888 10.4318V11.1847H505.216V9.59375H511.807C511.807 9.03504 511.693 8.54025 511.466 8.10938C511.239 7.67377 510.919 7.33049 510.507 7.07955C510.1 6.8286 509.622 6.70312 509.072 6.70312C508.476 6.70312 507.955 6.84991 507.51 7.14347C507.07 7.43229 506.729 7.81108 506.487 8.27983C506.25 8.74384 506.132 9.24811 506.132 9.79261V11.0355C506.132 11.7647 506.26 12.3849 506.516 12.8963C506.776 13.4077 507.138 13.7983 507.602 14.0682C508.066 14.3333 508.608 14.4659 509.229 14.4659C509.631 14.4659 509.998 14.4091 510.33 14.2955C510.661 14.1771 510.947 14.0019 511.189 13.7699C511.43 13.5379 511.615 13.2514 511.743 12.9105L513.753 13.2727C513.592 13.8646 513.303 14.383 512.886 14.8281C512.474 15.2685 511.956 15.6117 511.331 15.858C510.711 16.0994 510.003 16.2202 509.207 16.2202ZM516.244 16V5.09091H518.297V6.82386H518.41C518.609 6.23674 518.959 5.77509 519.461 5.43892C519.968 5.09801 520.541 4.92756 521.18 4.92756C521.313 4.92756 521.469 4.93229 521.649 4.94176C521.833 4.95123 521.978 4.96307 522.082 4.97727V7.00852C521.997 6.98485 521.845 6.95881 521.627 6.9304C521.41 6.89725 521.192 6.88068 520.974 6.88068C520.472 6.88068 520.025 6.98722 519.632 7.20028C519.243 7.40862 518.936 7.69981 518.708 8.07386C518.481 8.44318 518.368 8.86458 518.368 9.33807V16H516.244ZM532.094 7.75426L530.17 8.09517C530.089 7.84896 529.961 7.61458 529.786 7.39205C529.616 7.16951 529.384 6.98722 529.09 6.84517C528.797 6.70312 528.43 6.6321 527.989 6.6321C527.388 6.6321 526.886 6.76705 526.484 7.03693C526.081 7.30208 525.88 7.64536 525.88 8.06676C525.88 8.43134 526.015 8.72491 526.285 8.94744C526.555 9.16998 526.99 9.35227 527.592 9.49432L529.325 9.89205C530.328 10.1241 531.076 10.4815 531.569 10.9645C532.061 11.4474 532.308 12.0748 532.308 12.8466C532.308 13.5 532.118 14.0824 531.739 14.5938C531.365 15.1004 530.842 15.4981 530.17 15.7869C529.502 16.0758 528.728 16.2202 527.847 16.2202C526.626 16.2202 525.629 15.9598 524.857 15.4389C524.085 14.9134 523.612 14.1676 523.437 13.2017L525.489 12.8892C525.617 13.4242 525.88 13.8291 526.278 14.1037C526.675 14.3736 527.194 14.5085 527.833 14.5085C528.529 14.5085 529.085 14.3641 529.502 14.0753C529.919 13.7817 530.127 13.4242 530.127 13.0028C530.127 12.6619 529.999 12.3755 529.744 12.1435C529.493 11.9115 529.107 11.7363 528.586 11.6179L526.739 11.2131C525.721 10.9811 524.969 10.6117 524.481 10.1051C523.998 9.59848 523.756 8.95691 523.756 8.1804C523.756 7.53646 523.936 6.97301 524.296 6.49006C524.656 6.0071 525.153 5.63068 525.788 5.3608C526.422 5.08617 527.149 4.94886 527.968 4.94886C529.147 4.94886 530.075 5.20455 530.752 5.71591C531.429 6.22254 531.877 6.90199 532.094 7.75426Z" fill="#696671"/>
<line x1="457" y1="29" x2="545" y2="29" stroke="#F9F9F9" stroke-width="2" stroke-linecap="round"/>
</svg>
